<svg
xmlns="http://www.w3.org/2000/svg"
viewBox="0 0 841.89 595.28"
>
<g><g class="f"><path d="M461.44 300.413h5.504v-5.52h-5.504v5.52zm2.317-3.776v-.87h.872l-.002 3.775h-.87v-2.905zM324.165 298.788l-.728-.7h-2.467v2.035h2.467l.728-.65zM537.05 296.56l-.65.653v1.02l.65.652h1.022l.65-.65v-1.022l-.65-.652zM283.628 229.243h6.39v3.195h-6.39zM532.113 296.56l-.65.653v1.02l.65.652h1.02l.652-.65v-1.022l-.65-.652zM496.882 300.413h5.504v-5.52h-5.504v5.52zm1.445-4.066l.58-.58h1.456l.578.58v1.162l-1.742 1.16h1.743v.872h-2.61v-1.162l1.74-1.162v-.58H499.197v.58h-.87v-.87zM324.165 296.49v-.684l-.728-.62h-2.467v2.032h2.467zM425.33 347.956v4.066h6.68v-.29l-6.39-3.776zM324.18 349.078h.872v.58l-1.74 1.163v1.163h2.61v-.87h-1.742v-.002l1.743-1.16v-1.162l-.578-.58h-1.455l-.58.58v.87h.87zM213.38 294.914h5.532v2.614h-5.533zM251.522 232.572l-.615-.616 1.722-1.722-.536-2.337h-1.163l-1.16 5.084v.436h3.485v-.435l-.398-1.743zM318.662 351.402l.58.58 1.162-1.16h.29l1.163 1.16.58-.58-1.16-1.162v-.29l1.16-1.162-.58-.58-1.162 1.16h-.29l-1.162-1.16-.58.58 1.16 1.162v.29zM389.976 352.072h6.68v-4.066h-.29l-6.39 3.776zM180.244 300.25v-1.74l-.87-.873v-.87l.29-.29.58-.582h.87l.872.87v.872l-.87.872v1.74h.87l1.742-1.74v-2.615l-1.742-1.742h-2.613l-1.743 1.742v2.614l1.743 1.74zM638.48 300.413h4.182l1.627-1.743v-3.776h-5.81v5.52zm1.452-4.066l.58-.58h1.948v.87h-1.657v2.033h1.657v.872h-1.947l-.58-.58v-2.615zM708.453 299.466h4.067l.043-3.776h-4.11zM676.056 295.068l-.58.58v1.454l.87 1.452h.87l.873-1.452v-1.453l-.582-.582zM183.752 338.64l-3.49-2.47h-1.148v4.942h1.15zM127.55 219.692v162.99h602.37v-162.99H127.55zm537.174 63.92c.98 0 1.772.793 1.772 1.77s-.793 1.773-1.772 1.773c-.978 0-1.77-.794-1.77-1.772s.792-1.772 1.77-1.772zm-70.866 0c.98 0 1.772.793 1.772 1.77s-.793 1.773-1.772 1.773-1.77-.794-1.77-1.772.792-1.772 1.77-1.772zm-70.866 0c.98 0 1.772.793 1.772 1.77s-.793 1.773-1.772 1.773-1.772-.794-1.772-1.772.794-1.772 1.772-1.772zm-70.866 0c.98 0 1.772.793 1.772 1.77s-.794 1.773-1.772 1.773-1.772-.794-1.772-1.772.793-1.772 1.772-1.772zm-60.135 13.593l.873-.87h.87l.872.87v.872l-.87.87h-.872l-.872-.87v-.872zm1.322 13.445c.978 0 1.77.792 1.77 1.77s-.792 1.772-1.77 1.772c-.98 0-1.772-.792-1.772-1.77s.793-1.772 1.772-1.772zm-31.785 35.697l-4.78 2.76-.435-.755 4.78-2.76.435.755zm-4.92-47.384l.872-.872h1.16v-3.775h.872v5.81l-.87.87h-1.163l-.873-.87v-1.162zm1.272 11.687c.978 0 1.77.792 1.77 1.77s-.792 1.772-1.77 1.772c-.98 0-1.772-.792-1.772-1.77s.793-1.772 1.77-1.772zm-37.782-16.337h3.66l1.278 1.065v1.422l-.917.84.916.84v1.302l-1.25 1.212h-3.688v-6.68zm4.12 18.108c0 .98-.793 1.772-1.772 1.772-.978 0-1.77-.792-1.77-1.77s.792-1.772 1.77-1.772c.98 0 1.772.792 1.772 1.77zm-41.462-84.05h8.133v4.94h-8.134v-4.94zm4.257 82.28c.98 0 1.772.792 1.772 1.77s-.793 1.772-1.772 1.772c-.978 0-1.77-.792-1.77-1.77s.792-1.772 1.77-1.772zm-1.28-9.656v-6.68h.872v6.68h-.872zm1.743-.87v-4.94h.87v4.94h-.87zm-70.504-71.56h.872v5.723h-.87v-5.722zm-2.026-1.276h.872v7h-.872v-7zm-2.03 2.57h.873v4.43h-.873v-4.43zM180.555 335.3l4.07 2.908v.872l-4.07 2.907h-2.312v-6.687h2.312zm-1.612-22.877c0-.978.793-1.77 1.772-1.77.978 0 1.77.792 1.77 1.77s-.792 1.772-1.77 1.772c-.98 0-1.772-.792-1.772-1.77zm-.553-85.12h3.367l1.418 1.417v1.56l-1.418 1.418h-2.496v2.58h-.87V227.3zm-36.303 51.136h1.827c.71 0 1.234.108 1.585.333.52.332.728.82.728 1.476 0 .792-.45 1.395-1.197 1.647-.387.126-.846.153-1.305.153h-1.053v2.9h-.585v-6.51zm-.2 36.455h2.908v-4.94h-2.908v-.873h6.687v.872h-2.907v4.94h2.907v.873h-6.687v-.872zm5.165 23.75c0 .98-.793 1.772-1.77 1.772-.98 0-1.773-.792-1.773-1.77s.792-1.773 1.77-1.773c.98 0 1.772.792 1.772 1.77zm-9.266-53.596c-2.017 0-2.854-1.53-2.854-3.367 0-1.792.89-3.358 2.854-3.358 2.043 0 2.862 1.42 2.862 3.303 0 1.837-.82 3.42-2.862 3.42zm11.432 80.232h-7.85v-.872h7.85v.872zm.51-83h-2.777v-.478h2.78v.478zm5.032 2.67h-4.673v-.604l3.89-5.41h-3.63v-.496h4.313v.522l-3.98 5.492h4.08v.495zm22 10.588l2.252-2.253h3.335l2.253 2.254v3.335l-2.253 2.252h-1.232v.87h-.87v-.87h-1.233l-2.253-2.253v-3.336zm7.89 69.742h-3.488v3.49h-.872v-3.49h-3.49v-.872h3.49v-3.49h.872v3.49h3.49v.872zm5.48-106.47c-.782 0-1.417-.633-1.417-1.416s.635-1.417 1.417-1.417 1.418.634 1.418 1.417-.635 1.417-1.418 1.417zm0-4.505c-.782 0-1.417-.634-1.417-1.417 0-.782.635-1.417 1.417-1.417s1.418.635 1.418 1.417-.635 1.418-1.418 1.418zm5.456 4.507c-.783 0-1.417-.634-1.417-1.417s.634-1.417 1.416-1.417c.783 0 1.418.634 1.418 1.417s-.635 1.417-1.418 1.417zm0-4.506c-.783 0-1.417-.634-1.417-1.417 0-.782.634-1.417 1.416-1.417.783 0 1.418.635 1.418 1.417s-.635 1.418-1.418 1.418zm5.456 4.507c-.782 0-1.417-.634-1.417-1.417s.634-1.417 1.417-1.417 1.418.634 1.418 1.417-.635 1.417-1.418 1.417zm0-4.506c-.782 0-1.417-.634-1.417-1.417 0-.782.634-1.417 1.417-1.417s1.418.635 1.418 1.417-.635 1.418-1.418 1.418zm5.457 4.507c-.784 0-1.42-.634-1.42-1.417s.636-1.417 1.42-1.417c.78 0 1.416.634 1.416 1.417s-.635 1.417-1.417 1.417zm0-4.506c-.784 0-1.42-.634-1.42-1.417 0-.782.636-1.417 1.42-1.417.78 0 1.416.635 1.416 1.417s-.635 1.418-1.417 1.418zM218.617 365.3l-2.035-2.352v5.84h-.872v-5.84l-2.034 2.352h-1.163l3.634-4.36 3.634 4.36h-1.162zm.87-30v6.687h-6.686v-6.687h6.687zm-5.113-22.877c0-.978.793-1.77 1.77-1.77.98 0 1.773.792 1.773 1.77s-.793 1.772-1.772 1.772c-.978 0-1.77-.792-1.77-1.77zm5.41-14.02h-3.204v2.904h-.87V298.4h-3.202v-4.357h7.276v4.357zm.088-64.113H219v-2.857h.872v2.857zM248.816 351.4l-.87-.87v-.87l.87-.872h.87l.872.87v.872l-.87.872h-.872zm.993-38.98c0-.978.792-1.77 1.77-1.77s1.77.792 1.77 1.77-.792 1.772-1.77 1.772c-.98 0-1.772-.792-1.772-1.77zm1.77 54.213c-.98 0-1.772-.792-1.772-1.77s.794-1.773 1.772-1.773 1.77.793 1.77 1.772c0 .98-.79 1.77-1.77 1.77zm3.625-16.103l-.872.87h-.87l-.872-.87v-.87l.872-.872h.87l.873.87v.872zm0-53.312l-3.194 1.452v2.614h-.87v-2.614l-3.195-1.452v-.29h7.26v.29zm0-1.16h-7.26v-.292l3.195-1.452v-.87h.87v.87l3.196 1.452v.29zm.374-66.978h-.567l-1.46 1.46.573 2.295v1.452H248.9v-1.452l1.45-5.81h2.325l.632 2.53 1.092-1.09-.003-.57.616-.615h.566l.615.617v.567l-.616.615zm13.716 118.065c-4.697 0-8.504-3.807-8.504-8.504 0-4.696 3.807-8.503 8.504-8.503 4.697 0 8.504 3.807 8.504 8.504 0 4.698-3.807 8.505-8.504 8.505zm12.952-49.927h1.742v-.87h.872v2.613h-.872v-.87h-1.742v-.872zm4.765 69.415c-.978 0-1.77-.792-1.77-1.77s.792-1.773 1.77-1.773c.98 0 1.772.793 1.772 1.772 0 .98-.794 1.77-1.772 1.77zm3.92-16.103h-7.844v-.87h7.842v.87zm.9-52.44h-1.743v1.452h-.87v-3.776h.87v1.452h1.743v.87zm12.896 49.055c-4.698 0-8.505-3.807-8.505-8.504 0-4.696 3.807-8.503 8.504-8.503 4.696 0 8.503 3.807 8.503 8.504 0 4.698-3.807 8.505-8.504 8.505zm17.716 19.488c-.978 0-1.77-.792-1.77-1.77s.792-1.773 1.77-1.773c.98 0 1.772.793 1.772 1.772 0 .98-.793 1.77-1.772 1.77zm4.64-13.78h-9.296v-5.518h9.295v5.52zm13.076-5.708c-4.697 0-8.504-3.807-8.504-8.504 0-4.696 3.807-8.503 8.504-8.503 4.697 0 8.504 3.807 8.504 8.504 0 4.698-3.806 8.505-8.504 8.505zm15.86 3.385l-.872.872h-.87l-.873-.872v-.87l.872-.872h.87l.87.87v.872zm1.857 16.103c-.98 0-1.773-.792-1.773-1.77s.793-1.773 1.772-1.773c.977 0 1.77.793 1.77 1.772 0 .98-.793 1.77-1.77 1.77zm4.53-16.103h-5.517v-.87h5.52v.87zm26.096-51.582l.872-.87h.87l.872.87v.872l-.87.87h-.872l-.872-.87v-.872zm4.806 67.685c-.98 0-1.772-.792-1.772-1.77s.793-1.773 1.772-1.773c.978 0 1.77.793 1.77 1.772 0 .98-.792 1.77-1.77 1.77zm4.216-13.69h-8.423v-1.678l6.97-4.13h1.453v5.81zm.563-56.61l-.87.872h-.872l-.87-.87v-.872l.87-.87h.87l.873.87v.87zm12.94 50.812c-4.698 0-8.505-3.807-8.505-8.504 0-4.696 3.807-8.503 8.504-8.503 4.696 0 8.503 3.807 8.503 8.504 0 4.698-3.807 8.505-8.504 8.505zm12.813-51.38l1.452-1.45h1.743l1.162 1.16v.29h-.872l-.58-.58h-1.162l-.872.87v3.197l.87.87h1.163l.58-.58h.873v.29l-1.162 1.162h-1.743l-1.452-1.452v-3.776zm4.903 14.885c.977 0 1.77.792 1.77 1.77s-.793 1.772-1.77 1.772c-.98 0-1.773-.792-1.773-1.77s.794-1.772 1.773-1.772zm0 55.983c-.98 0-1.773-.792-1.773-1.77s.794-1.773 1.772-1.773 1.772.793 1.772 1.772c0 .98-.794 1.77-1.772 1.77zm4.135-13.74h-8.422v-5.81h1.452l6.97 4.146v1.663zm.548-51.9h-.87v-2.904h-2.615v2.904h-.872v-6.68h.873v2.904h2.614v-2.905h.87v6.68zm13.033 46.152c-4.696 0-8.503-3.807-8.503-8.504 0-4.696 3.807-8.503 8.504-8.503 4.698 0 8.505 3.807 8.505 8.504 0 4.698-3.807 8.505-8.504 8.505zm17.72 19.488c-.98 0-1.773-.792-1.773-1.77s.793-1.773 1.772-1.773c.977 0 1.77.793 1.77 1.772 0 .98-.793 1.77-1.77 1.77zm4.472-18.898h-2.905v5.52h-3.195v-2.325h-2.614v-.87h3.485v2.323h1.453v-5.52h3.776v.872zm-6.245-35.314c0-.978.793-1.77 1.772-1.77.977 0 1.77.792 1.77 1.77s-.793 1.772-1.77 1.772c-.98 0-1.773-.792-1.773-1.77zm7.45-14.33h-2.04v3.195h-7.248v-3.196h-2.042v-.872h2.04v-3.195h7.248v3.195h2.04v.87zm12.024-31.25c-5.78 0-10.54-4.33-11.24-9.92h-17.105v-2.836h17.106c.7-5.592 5.46-9.92 11.24-9.92s10.543 4.328 11.242 9.92h17.106v2.835h-17.106c-.7 5.59-5.46 9.92-11.24 9.92zm15.256 83.69l-.872.872h-.87l-.872-.872v-.87l.87-.872h.872l.872.87v.872zm2.475 16.103c-.978 0-1.77-.792-1.77-1.77s.792-1.773 1.77-1.773c.98 0 1.773.793 1.773 1.772 0 .98-.794 1.77-1.772 1.77zm-1.603-16.103v-.87h3.188v.87h-3.188zm1.604-36.338c-.977 0-1.77-.792-1.77-1.77s.793-1.772 1.77-1.772c.98 0 1.773.792 1.773 1.77s-.794 1.772-1.772 1.772zm5.078 36.338l-.872.872h-.87l-.872-.872v-.87l.87-.872h.872l.872.87v.872zm.61-52.44h-2.04v3.195h-7.248v-3.196h-2.04v-.872h2.04v-3.195h7.247v3.195h2.04v.87zm12.03 49.055c-4.697 0-8.504-3.807-8.504-8.504 0-4.696 3.806-8.503 8.503-8.503s8.504 3.807 8.504 8.504c0 4.698-3.806 8.505-8.503 8.505zm17.717 19.488c-.98 0-1.772-.792-1.772-1.77s.793-1.773 1.772-1.773c.978 0 1.77.793 1.77 1.772 0 .98-.792 1.77-1.77 1.77zm3.92-16.386h-.873v-2.033l-.87-.886h-.873l-.872.886v4.137l-1.382 1.383h-1.593l-1.382-1.382v-2.103h.873v1.743l.87.87h.872l.872-.87v-4.137l1.382-1.396h1.592l1.382 1.396v2.394zm-5.692-37.826c0-.978.793-1.77 1.772-1.77.978 0 1.77.792 1.77 1.77s-.792 1.772-1.77 1.772c-.98 0-1.772-.792-1.772-1.77zm6.32-13.826l-1.16 1.162h-6.68l-1.162-1.16v-1.744l1.162-1.162h1.743l1.162 1.162v1.742l-.29.29h1.452l-.292-.29v-1.742l1.162-1.162h1.743l1.162 1.162v1.743zm13.168 48.55c-4.696 0-8.504-3.806-8.504-8.503 0-4.696 3.808-8.503 8.505-8.503 4.697 0 8.505 3.807 8.505 8.504 0 4.698-3.808 8.505-8.504 8.505zm-.012-80.304c-5.78 0-10.542-4.33-11.24-9.92H524.4v-2.836h17.107c.7-5.592 5.46-9.92 11.24-9.92s10.542 4.328 11.24 9.92h17.107v2.835h-17.106c-.7 5.59-5.46 9.92-11.24 9.92zm17.718 31.21l-1.89-2.803v5.747h-.872v-6.716h1.236l1.526 2.32 1.526-2.32h1.236v6.716h-.872v-5.747l-1.89 2.803zm1.784 14.37c0 .98-.794 1.772-1.772 1.772-.98 0-1.772-.792-1.772-1.77s.792-1.772 1.77-1.772c.98 0 1.774.792 1.774 1.77zm-5.056 41.304l-.87-.87v-1.162l.87-.872h1.16v-3.776h.874v5.81l-.873.87h-1.16zm3.284 12.91c-.98 0-1.772-.793-1.772-1.772s.792-1.772 1.77-1.772c.98 0 1.773.793 1.773 1.772 0 .98-.794 1.77-1.773 1.77zm3.397-15.814l-.873.87h-1.16l-.872-.87v-1.16l.87-.874h1.162v-3.775h.873v5.81zm14.32-3.675c-4.698 0-8.505-3.807-8.505-8.504 0-4.696 3.807-8.503 8.504-8.503s8.504 3.807 8.504 8.504c0 4.698-3.807 8.505-8.504 8.505zm15.047 4.257l-.58-.58-.29-.292v-.87l.87-.872h.872l.87.87v.872l-.87.872h-.872zm5.742-55.702v.882h-2.352v.882l.588.588v3.233h-.882v-2.94h-.882v2.94h-.88v-3.233l.586-.588v-.882h-2.35v-.882h6.172zm-3.822-1.034v-.882l.294-.294h.882l.294.294v.882l-.294.294h-.882l-.294-.294zm-.468 51.507h3.196l1.452 1.382v.36h-.872l-.942-.87h-2.473l-.942.87h-.87v-.36l1.45-1.382zm-.555-33.752c0-.978.792-1.77 1.77-1.77.98 0 1.772.792 1.772 1.77s-.793 1.772-1.77 1.772c-.98 0-1.773-.792-1.773-1.77zm1.77 54.213c-.978 0-1.77-.792-1.77-1.77s.792-1.773 1.77-1.773c.98 0 1.772.793 1.772 1.772 0 .98-.793 1.77-1.77 1.77zm4.303-16.103l-.87.872h-.872l-.58-.58-.29-.292v-.87l.87-.872h.872l.87.87v.872zm13.4-83.69c-5.78 0-10.54-4.33-11.24-9.92h-17.106v-2.836h17.106c.7-5.592 5.46-9.92 11.24-9.92s10.542 4.328 11.24 9.92h17.107v2.835h-17.106c-.7 5.59-5.46 9.92-11.24 9.92zm17.73 99.793c-.978 0-1.77-.792-1.77-1.77s.792-1.773 1.77-1.773c.98 0 1.772.793 1.772 1.772 0 .98-.793 1.77-1.77 1.77zm-.876-12.493l-.682-.536 2.38-3.08h-3.195l3.442-4.474.687.53-2.387 3.083h3.195l-3.44 4.477zm-.895-41.72c0-.978.793-1.77 1.772-1.77.978 0 1.77.792 1.77 1.77s-.792 1.772-1.77 1.772c-.98 0-1.772-.792-1.772-1.77zm3.47-11.135h-5.434v-7.262h1.162v-.87h1.787v.87h1.698v-.87h1.743v.87h1.162v5.026l-2.12 2.235zm16.018 45.86c-4.697 0-8.504-3.807-8.504-8.504 0-4.696 3.807-8.503 8.504-8.503s8.504 3.807 8.504 8.504c0 4.698-3.807 8.505-8.504 8.505zm17.717 19.488c-.98 0-1.772-.792-1.772-1.77s.793-1.773 1.772-1.773c.978 0 1.77.793 1.77 1.772 0 .98-.792 1.77-1.77 1.77zm1.436-14.494v-1.164l.898-.872h-2.925v2.907h-3.772v-.87h2.9v-2.91h3.8l-.9-.87v-1.164l2.907 2.472-2.907 2.47zm-2.448-51.262v-.872h2.033v.872h-.58v.58h-.872v-.58h-.58zm1.012 9.772c.978 0 1.77.792 1.77 1.77s-.792 1.772-1.77 1.772c-.98 0-1.772-.792-1.772-1.77s.793-1.772 1.772-1.772zm1.02-11.225h-2.032l-1.162-2.033v-2.033l1.162-1.163h2.033l1.162 1.162v2.032l-1.162 2.033zm16.695 47.72c-4.696 0-8.504-3.807-8.504-8.504 0-4.696 3.808-8.503 8.504-8.503 4.697 0 8.505 3.807 8.505 8.504 0 4.698-3.808 8.505-8.505 8.505zm17.718 19.488c-.98 0-1.772-.792-1.772-1.77s.793-1.773 1.772-1.773c.978 0 1.77.793 1.77 1.772 0 .98-.792 1.77-1.77 1.77zm2.894-17.26h-2.907v2.642l.872-.9h1.162l-2.47 2.91-2.473-2.91h1.162l.873.9V348.5h2.907v-2.333h.872v3.205zm-4.666-36.952c0-.978.793-1.77 1.772-1.77.978 0 1.77.792 1.77 1.77s-.792 1.772-1.77 1.772c-.98 0-1.772-.792-1.772-1.77zm6.148-12.664h-1.162l-1.7-1.45h-.333v2.03h-5.808v-5.518h5.81v2.034h.29l1.742-1.453h1.162v4.356zm6.24-42.837H705.72c-.7 5.59-5.46 9.92-11.24 9.92s-10.542-4.33-11.24-9.92h-17.107v-2.836h17.106c.698-5.592 5.46-9.92 11.24-9.92s10.54 4.328 11.24 9.92h17.106v2.835zM137.786 278.814c-1.62 0-2.206 1.46-2.206 2.863 0 1.414.576 2.88 2.205 2.88 1.64 0 2.215-1.458 2.215-2.88 0-1.467-.53-2.863-2.214-2.863zM144.832 281.425c.505-.18.766-.72.766-1.233 0-1.08-.756-1.27-1.657-1.27h-1.268v2.638h.973c.35 0 .854-.018 1.187-.135zM213.675 336.17h4.942v4.942h-4.942zM182.303 229.915v-.837l-.907-.907h-2.135v2.653h2.136zM657.717 334.716l-.837.837v2.687l.837.837H660.223l.146-.11v2.4l-.327.326h-1.965l-.326-.29h-.872v.326l.837.836h2.687l.837-.837v-6.177l-.836-.837h-2.687zm2.652 2.907v.256l-.327.325h-1.965l-.326-.326v-1.966l.326-.326h1.965l.326.326v1.71zM586.85 334.716l-.837.837v2.688l.4.402-.4.4v2.687l.837.836h2.687l.837-.837v-2.688l-.4-.4.4-.4v-2.69l-.837-.836h-2.687zm2.652 6.652l-.326.326h-1.965l-.325-.326v-1.965l.326-.325h1.966l.326.325v1.965zm0-3.49l-.326.327h-1.965l-.325-.326v-1.966l.326-.325h1.966l.326.324v1.965zM550.58 335.588h3.488v1.177l-3.487 5.233v.568h.727l3.634-5.537v-2.314h-4.36zM515.984 334.716l-.837.837v6.177l.837.837h2.687l.838-.837v-2.687l-.837-.838h-2.65v-2.29l.325-.327h1.965l.326.29h.872v-.326l-.837-.837h-2.686zm.36 4.362h1.966l.326.325v1.965l-.326.326h-1.965l-.326-.326v-1.965l.325-.325zM444.28 339.077h3.164l.326.326v1.965l-.326.325h-1.965l-.326-.29h-.873v.326l.837.836h2.688l.837-.837v-2.688l-.837-.837h-2.65v-2.617h3.487v-.872h-4.36zM412.92 334.716h-1.223l-3.14 3.767v1.757h3.49v2.326h.872v-2.326h.58v-.872h-.58v-4.652zm-.874 4.652h-2.616v-.57l2.616-3.14v3.71zM338.82 334.716l-.838.836v.327h.872l.326-.292h1.965l.326.326v1.965l-.325.324h-1.71v.873h1.71l.326.326v1.964l-.325.326h-1.965l-.326-.29h-.872v.326l.837.836h2.686l.837-.837v-2.688l-.4-.4.4-.402v-2.688l-.837-.836zM303.386 334.716l-.838.837v.326h.873l.327-.292h1.965l.326.326v1.383l-3.49 3.49v1.78h4.362v-.874h-3.49v-.545l3.49-3.49v-2.105l-.837-.837zM268.206 335.588h1.308v6.978h.873v-7.85h-2.18zM693.062 334.716l-.837.837v6.177l.837.837h2.686l.837-.837v-6.177l-.837-.837h-2.686zm2.65 6.65l-.325.328h-1.965l-.325-.326v-5.453l.325-.326h1.965l.326.325v5.452z"></path></g><g class="f"><path d="M170.76 217.384H190.6v1.924H170.76zM206.192 217.384h19.843v1.924h-19.843zM241.625 217.384h19.843v1.924h-19.843zM277.09 217.384h19.844v1.924H277.09z"></path></g><path d="M126.994 246.046h-13.61v-6.24h13.61" class="f"></path><g><ellipse cx="216.148" cy="364.838" rx="8.5" ry="8.5" class="s"></ellipse><ellipse cx="712.193" cy="364.867" rx="8.5" ry="8.5" class="s"></ellipse><ellipse cx="676.755" cy="364.816" rx="8.5" ry="8.5" class="s"></ellipse><ellipse cx="641.317" cy="364.819" rx="8.5" ry="8.5" class="s"></ellipse><ellipse cx="605.889" cy="364.82" rx="8.5" ry="8.5" class="s"></ellipse><ellipse cx="570.46" cy="364.821" rx="8.5" ry="8.5" class="s"></ellipse><ellipse cx="535.032" cy="364.822" rx="8.5" ry="8.5" class="s"></ellipse><ellipse cx="499.594" cy="364.825" rx="8.5" ry="8.5" class="s"></ellipse><ellipse cx="464.166" cy="364.826" rx="8.5" ry="8.5" class="s"></ellipse><ellipse cx="428.737" cy="364.827" rx="8.5" ry="8.5" class="s"></ellipse><ellipse cx="393.297" cy="364.869" rx="8.5" ry="8.5" class="s"></ellipse><ellipse cx="357.866" cy="364.867" rx="8.5" ry="8.5" class="s"></ellipse><ellipse cx="322.436" cy="364.865" rx="8.5" ry="8.5" class="s"></ellipse><ellipse cx="287.014" cy="364.834" rx="8.5" ry="8.5" class="s"></ellipse><ellipse cx="251.565" cy="364.855" rx="8.5" ry="8.5" class="s"></ellipse><ellipse cx="180.72" cy="364.839" rx="8.5" ry="8.5" class="s"></ellipse><ellipse cx="145.291" cy="364.84" rx="8.5" ry="8.5" class="s"></ellipse><ellipse cx="180.707" cy="338.643" rx="8.5" ry="8.5" class="s"></ellipse><ellipse cx="216.138" cy="338.646" rx="8.5" ry="8.5" class="s"></ellipse><ellipse cx="145.276" cy="338.641" rx="8.5" ry="8.5" class="s"></ellipse><ellipse cx="712.181" cy="312.376" rx="8.5" ry="8.5" class="s"></ellipse><ellipse cx="676.764" cy="312.425" rx="8.5" ry="8.5" class="s"></ellipse><ellipse cx="641.326" cy="312.43" rx="8.5" ry="8.5" class="s"></ellipse><ellipse cx="605.895" cy="312.428" rx="8.5" ry="8.5" class="s"></ellipse><ellipse cx="570.465" cy="312.426" rx="8.5" ry="8.5" class="s"></ellipse><ellipse cx="535.034" cy="312.424" rx="8.5" ry="8.5" class="s"></ellipse><ellipse cx="499.625" cy="312.424" rx="8.5" ry="8.5" class="s"></ellipse><ellipse cx="464.166" cy="312.426" rx="8.5" ry="8.5" class="s"></ellipse><ellipse cx="428.736" cy="312.424" rx="8.5" ry="8.5" class="s"></ellipse><ellipse cx="393.297" cy="312.393" rx="8.5" ry="8.5" class="s"></ellipse><ellipse cx="357.868" cy="312.394" rx="8.5" ry="8.5" class="s"></ellipse><ellipse cx="322.44" cy="312.395" rx="8.5" ry="8.5" class="s"></ellipse><ellipse cx="287.006" cy="312.423" rx="8.5" ry="8.5" class="s"></ellipse><ellipse cx="251.555" cy="312.417" rx="8.5" ry="8.5" class="s"></ellipse><ellipse cx="216.138" cy="312.426" rx="8.5" ry="8.5" class="s"></ellipse><ellipse cx="180.708" cy="312.423" rx="8.5" ry="8.5" class="s"></ellipse><ellipse cx="145.277" cy="312.421" rx="8.5" ry="8.5" class="s"></ellipse><ellipse cx="216.148" cy="364.838" rx="8.5" ry="8.5" class="s"></ellipse><ellipse cx="180.72" cy="364.839" rx="8.5" ry="8.5" class="s"></ellipse><ellipse cx="145.291" cy="364.84" rx="8.5" ry="8.5" class="s"></ellipse><path d="M481.88 226.68c-15.634 0-28.345 12.72-28.345 28.345 0 15.636 12.72 28.347 28.346 28.347s28.348-12.722 28.348-28.347c.01-15.635-12.712-28.346-28.347-28.346zM552.747 226.68c-15.635 0-28.346 12.72-28.346 28.346 0 15.635 12.722 28.346 28.347 28.346 15.625 0 28.347-12.72 28.347-28.346.01-15.636-12.71-28.347-28.347-28.347zM623.614 226.68c-15.636 0-28.347 12.72-28.347 28.346 0 15.635 12.722 28.346 28.347 28.346 15.625 0 28.346-12.72 28.346-28.346.01-15.636-12.71-28.347-28.346-28.347zM694.48 226.68c-15.636 0-28.347 12.72-28.347 28.346 0 15.635 12.722 28.346 28.347 28.346 15.625 0 28.346-12.72 28.346-28.346.01-15.636-12.71-28.347-28.346-28.347z" class="s"></path><path d="M127.55 290.452h602.37M162.984 290.452v92.134M198.417 290.452v92.134M233.85 290.452v92.134M269.28 382.585v-35.43M269.28 330.145v-39.69M304.72 382.585v-35.43M304.72 330.145v-39.69M340.15 382.585v-35.43M340.15 330.145v-39.69M411.01 382.585v-35.43M411.01 330.145v-39.69M446.45 382.585v-35.43M446.45 330.145v-110.55M517.31 382.585v-35.43M517.31 330.145v-110.55M552.75 382.585v-35.43M552.75 330.145v-39.69M588.18 382.585v-35.43M588.18 330.145v-110.55M623.61 382.576v-92.12M481.88 382.576v-92.12M375.58 382.576v-92.12M659.05 382.585v-35.43M659.05 330.145v-110.55M694.48 382.585v-35.43M694.48 330.145v-39.69M269.28 330.145h-.23M269.28 347.155h-.23" class="s"></path><g class="f"><path d="M695.59 334.724h-2.687l-.837.836v6.176l.837.837h2.688l.837-.837v-6.175l-.837-.836zm-.035 6.65l-.326.327h-1.965l-.326-.325v-5.453l.325-.326h1.964l.325.326v5.453zM270.2 342.573h-.873v-6.977h-1.31v-.872h2.182zM307.072 337.666l-3.488 3.49v.545h3.488v.873h-4.36v-1.78l3.488-3.488v-1.383l-.326-.326h-1.965l-.327.29h-.872v-.325l.838-.836h2.687l.837.837zM342.227 338.248l-.4.4.4.4v2.688l-.837.837h-2.687l-.837-.837v-.325h.872l.326.29h1.965l.325-.325v-1.964l-.326-.325h-1.71v-.873h1.71l.325-.326v-1.964l-.326-.326h-1.966l-.326.29h-.872v-.325l.837-.836h2.687l.837.837zM412.58 339.375v-4.65h-1.22l-3.14 3.766v1.757h3.488v2.326h.873v-2.326h.582v-.872h-.58zm-.872 0h-2.616v-.57l2.616-3.14v3.71zM448.654 335.596h-3.49v2.616h2.653l.837.837v2.686l-.837.837h-2.687l-.837-.837v-.325h.872l.326.29h1.966l.325-.325.002-1.964-.326-.325h-3.163v-4.36h4.36zM516.414 335.596h1.965l.325.29h.872v-.326l-.837-.836h-2.687l-.837.836v6.176l.837.837h2.687l.837-.837v-2.687l-.837-.838h-2.652v-2.29l.326-.326zm0 3.49h1.965l.325.325v1.965l-.326.326h-1.966l-.326-.325v-1.964l.326-.325zM555.25 337.036l-3.634 5.537h-.727v-.568l3.488-5.233v-1.176h-3.49v-.872h4.362zM590.406 335.56l-.837-.836h-2.688l-.837.836v2.688l.4.4-.4.4v2.688l.837.837h2.687l.836-.837v-2.687l-.4-.402.4-.4v-2.688zm-.873 5.815l-.326.326h-1.964l-.326-.325v-1.964l.326-.325h1.964l.326.326v1.965zm0-3.49l-.326.327h-1.964l-.326-.326v-1.964l.326-.326h1.964l.326.326v1.964zM660.303 334.724h-2.687l-.837.836v2.688l.836.837H660.122l.146-.11v2.4l-.326.326h-1.965l-.326-.29h-.87v.327l.836.837h2.687l.837-.837v-6.176l-.837-.836zm-.035 2.907v.256l-.326.326h-1.965l-.326-.326v-1.964l.327-.326h1.965l.326.326v1.71z"></path></g></g><g><path d="M481.9 263.06c-1.153 0-2.304-.258-3.354-.776l-.12-.058v-3.27h-3.268l-.06-.12c-1.035-2.1-1.035-4.607 0-6.707l.06-.12h3.27v-3.27l.118-.057c2.1-1.035 4.607-1.036 6.707 0l.12.058v3.27h3.268l.06.12c1.036 2.1 1.036 4.607 0 6.707l-.06.12h-3.268v3.27l-.12.057c-1.05.518-2.2.777-3.352.777zm-3.047-1.1c1.916.902 4.176.902 6.094 0v-3.43h3.428c.903-1.918.903-4.176 0-6.094h-3.428v-3.428c-1.92-.904-4.18-.903-6.094 0v3.428h-3.43c-.902 1.918-.902 4.177 0 6.095h3.43v3.43z" class="f"></path><path d="M552.766 263.06c-1.153 0-2.304-.258-3.354-.776l-.12-.058v-3.27h-3.268l-.06-.12c-1.035-2.1-1.035-4.607 0-6.707l.06-.12h3.27v-3.27l.118-.057c2.1-1.035 4.607-1.036 6.707 0l.118.058v3.27h3.27l.057.12c1.037 2.1 1.037 4.607 0 6.707l-.058.12h-3.27v3.27l-.118.057c-1.05.518-2.203.777-3.354.777zm-3.047-1.1c1.915.902 4.175.902 6.093 0v-3.43h3.428c.904-1.918.904-4.176 0-6.094h-3.427v-3.428c-1.92-.904-4.18-.903-6.094 0v3.428h-3.43c-.903 1.918-.903 4.177 0 6.095h3.43v3.43z" class="f"></path><path d="M623.632 263.06c-1.152 0-2.304-.258-3.354-.776l-.12-.058v-3.27h-3.268l-.06-.12c-1.035-2.1-1.035-4.607 0-6.707l.06-.12h3.27v-3.27l.118-.057c2.1-1.035 4.607-1.036 6.707 0l.12.058v3.27h3.268l.06.12c1.035 2.1 1.035 4.607 0 6.707l-.06.12h-3.27v3.27l-.118.057c-1.05.518-2.202.777-3.353.777zm-3.047-1.1c1.916.902 4.176.902 6.094 0v-3.43h3.428c.902-1.918.902-4.176 0-6.094h-3.43v-3.428c-1.92-.904-4.18-.903-6.093 0v3.428h-3.43c-.902 1.918-.902 4.177 0 6.095h3.43v3.43z" class="f"></path><path d="M694.498 263.06c-1.152 0-2.304-.258-3.353-.776l-.12-.058v-3.27h-3.27l-.058-.12c-1.036-2.1-1.036-4.607 0-6.707l.06-.12h3.268v-3.27l.12-.057c2.098-1.035 4.606-1.036 6.707 0l.12.058v3.27h3.267l.058.12c1.036 2.1 1.036 4.607 0 6.707l-.06.12h-3.267v3.27l-.12.057c-1.048.518-2.2.777-3.352.777zm-3.047-1.1c1.917.902 4.177.902 6.095 0v-3.43h3.43c.9-1.918.9-4.176 0-6.094h-3.43v-3.428c-1.92-.904-4.18-.903-6.094 0v3.428h-3.43c-.9 1.918-.9 4.177 0 6.095h3.43v3.43z" class="f"></path></g><path d="M180.748 382.965h35.34v1.816h-35.34z" class="f"></path></g></svg>
