<svg width="480" height="128" viewBox="0 0 480 128" fill="none" xmlns="http://www.w3.org/2000/svg">
<path d="M148.156 64.5703V57.8438C148.156 56.9219 147.977 56.0547 147.617 55.2422C147.273 54.4141 146.797 53.6953 146.188 53.0859C145.578 52.4766 144.859 52 144.031 51.6562C143.219 51.2969 142.352 51.1172 141.43 51.1172C140.508 51.1172 139.633 51.2969 138.805 51.6562C137.992 52 137.281 52.4766 136.672 53.0859C136.062 53.6953 135.578 54.4141 135.219 55.2422C134.875 56.0547 134.703 56.9219 134.703 57.8438V64.5703H148.156ZM154.883 78H148.156V71.2734H134.703V78H128V57.8438C128 55.9844 128.352 54.2422 129.055 52.6172C129.758 50.9766 130.711 49.5469 131.914 48.3281C133.133 47.1094 134.555 46.1484 136.18 45.4453C137.82 44.7422 139.57 44.3906 141.43 44.3906C143.289 44.3906 145.031 44.7422 146.656 45.4453C148.297 46.1484 149.727 47.1094 150.945 48.3281C152.164 49.5469 153.125 50.9766 153.828 52.6172C154.531 54.2422 154.883 55.9844 154.883 57.8438V78Z" fill="white"/>
<path d="M191.792 64.5703C191.792 66.4297 191.441 68.1797 190.738 69.8203C190.034 71.4453 189.073 72.8672 187.855 74.0859C186.636 75.2891 185.206 76.2422 183.566 76.9453C181.941 77.6484 180.198 78 178.339 78C176.48 78 174.73 77.6484 173.089 76.9453C171.464 76.2422 170.042 75.2891 168.823 74.0859C167.62 72.8672 166.667 71.4453 165.964 69.8203C165.261 68.1797 164.909 66.4297 164.909 64.5703V44.3906H171.613V64.5703C171.613 65.4922 171.784 66.3594 172.128 67.1719C172.488 67.9844 172.972 68.6953 173.581 69.3047C174.191 69.9141 174.902 70.3984 175.714 70.7578C176.542 71.1016 177.417 71.2734 178.339 71.2734C179.261 71.2734 180.128 71.1016 180.941 70.7578C181.769 70.3984 182.488 69.9141 183.097 69.3047C183.706 68.6953 184.183 67.9844 184.527 67.1719C184.886 66.3594 185.066 65.4922 185.066 64.5703V44.3906H191.792V64.5703Z" fill="white"/>
<path d="M216.537 78H209.834V51.1172H199.733V44.3906H226.616V51.1172H216.537V78Z" fill="white"/>
<path d="M266.83 61.3359C266.83 62.9297 266.619 64.4687 266.197 65.9531C265.791 67.4219 265.213 68.8047 264.463 70.1016C263.713 71.3828 262.806 72.5547 261.744 73.6172C260.681 74.6797 259.509 75.5937 258.228 76.3594C256.947 77.1094 255.564 77.6875 254.08 78.0937C252.595 78.5156 251.056 78.7266 249.463 78.7266C247.869 78.7266 246.33 78.5156 244.845 78.0937C243.377 77.6875 241.994 77.1094 240.697 76.3594C239.416 75.5937 238.244 74.6797 237.181 73.6172C236.119 72.5547 235.205 71.3828 234.439 70.1016C233.689 68.8047 233.103 67.4219 232.681 65.9531C232.275 64.4687 232.072 62.9297 232.072 61.3359C232.072 59.7422 232.275 58.2031 232.681 56.7187C233.103 55.2344 233.689 53.8516 234.439 52.5703C235.205 51.2891 236.119 50.1172 237.181 49.0547C238.244 47.9922 239.416 47.0859 240.697 46.3359C241.994 45.5859 243.377 45.0078 244.845 44.6016C246.33 44.1797 247.869 43.9687 249.463 43.9687C251.056 43.9687 252.595 44.1797 254.08 44.6016C255.564 45.0078 256.947 45.5859 258.228 46.3359C259.509 47.0859 260.681 47.9922 261.744 49.0547C262.806 50.1172 263.713 51.2891 264.463 52.5703C265.213 53.8516 265.791 55.2344 266.197 56.7187C266.619 58.2031 266.83 59.7422 266.83 61.3359ZM260.15 61.3359C260.15 59.8672 259.869 58.4844 259.306 57.1875C258.744 55.875 257.978 54.7422 257.009 53.7891C256.056 52.8203 254.923 52.0547 253.611 51.4922C252.314 50.9297 250.931 50.6484 249.463 50.6484C247.978 50.6484 246.588 50.9297 245.291 51.4922C243.994 52.0547 242.861 52.8203 241.892 53.7891C240.923 54.7422 240.158 55.875 239.595 57.1875C239.033 58.4844 238.752 59.8672 238.752 61.3359C238.752 62.8047 239.033 64.1875 239.595 65.4844C240.158 66.7656 240.923 67.8906 241.892 68.8594C242.861 69.8281 243.994 70.5937 245.291 71.1562C246.588 71.7187 247.978 72 249.463 72C250.931 72 252.314 71.7187 253.611 71.1562C254.923 70.5937 256.056 69.8281 257.009 68.8594C257.978 67.8906 258.744 66.7656 259.306 65.4844C259.869 64.1875 260.15 62.8047 260.15 61.3359Z" fill="white"/>
<path d="M282.786 78H276.059V44.3906L299.591 44.3906V51.1172H282.786V57.8437H292.864V64.5703H282.786V78Z" fill="white"/>
<path d="M340.039 61.3359C340.039 62.9297 339.828 64.4687 339.406 65.9531C339 67.4219 338.422 68.8047 337.672 70.1016C336.922 71.3828 336.016 72.5547 334.953 73.6172C333.891 74.6797 332.719 75.5937 331.437 76.3594C330.156 77.1094 328.773 77.6875 327.289 78.0937C325.805 78.5156 324.266 78.7266 322.672 78.7266C321.078 78.7266 319.539 78.5156 318.055 78.0937C316.586 77.6875 315.203 77.1094 313.906 76.3594C312.625 75.5937 311.453 74.6797 310.391 73.6172C309.328 72.5547 308.414 71.3828 307.648 70.1016C306.898 68.8047 306.312 67.4219 305.891 65.9531C305.484 64.4687 305.281 62.9297 305.281 61.3359C305.281 59.7422 305.484 58.2031 305.891 56.7187C306.312 55.2344 306.898 53.8516 307.648 52.5703C308.414 51.2891 309.328 50.1172 310.391 49.0547C311.453 47.9922 312.625 47.0859 313.906 46.3359C315.203 45.5859 316.586 45.0078 318.055 44.6016C319.539 44.1797 321.078 43.9687 322.672 43.9687C324.266 43.9687 325.805 44.1797 327.289 44.6016C328.773 45.0078 330.156 45.5859 331.437 46.3359C332.719 47.0859 333.891 47.9922 334.953 49.0547C336.016 50.1172 336.922 51.2891 337.672 52.5703C338.422 53.8516 339 55.2344 339.406 56.7187C339.828 58.2031 340.039 59.7422 340.039 61.3359ZM333.359 61.3359C333.359 59.8672 333.078 58.4844 332.516 57.1875C331.953 55.875 331.187 54.7422 330.219 53.7891C329.266 52.8203 328.133 52.0547 326.82 51.4922C325.523 50.9297 324.141 50.6484 322.672 50.6484C321.187 50.6484 319.797 50.9297 318.5 51.4922C317.203 52.0547 316.07 52.8203 315.102 53.7891C314.133 54.7422 313.367 55.875 312.805 57.1875C312.242 58.4844 311.961 59.8672 311.961 61.3359C311.961 62.8047 312.242 64.1875 312.805 65.4844C313.367 66.7656 314.133 67.8906 315.102 68.8594C316.07 69.8281 317.203 70.5937 318.5 71.1562C319.797 71.7187 321.187 72 322.672 72C324.141 72 325.523 71.7187 326.82 71.1562C328.133 70.5937 329.266 69.8281 330.219 68.8594C331.187 67.8906 331.953 66.7656 332.516 65.4844C333.078 64.1875 333.359 62.8047 333.359 61.3359Z" fill="white"/>
<path d="M355.995 51.1172V64.5703L362.722 64.5703C363.644 64.5703 364.511 64.3984 365.323 64.0547C366.136 63.6953 366.847 63.2109 367.456 62.6016C368.066 61.9922 368.542 61.2812 368.886 60.4687C369.245 59.6406 369.425 58.7656 369.425 57.8437C369.425 56.9219 369.245 56.0547 368.886 55.2422C368.542 54.4141 368.066 53.6953 367.456 53.0859C366.847 52.4766 366.136 52 365.323 51.6562C364.511 51.2969 363.644 51.1172 362.722 51.1172H355.995ZM355.995 78H349.269V44.3906H362.722C363.956 44.3906 365.144 44.5547 366.284 44.8828C367.425 45.1953 368.488 45.6484 369.472 46.2422C370.472 46.8203 371.378 47.5234 372.191 48.3516C373.019 49.1641 373.722 50.0703 374.3 51.0703C374.894 52.0703 375.347 53.1406 375.659 54.2812C375.988 55.4219 376.152 56.6094 376.152 57.8437C376.152 59 376.003 60.125 375.706 61.2187C375.425 62.3125 375.011 63.3516 374.464 64.3359C373.933 65.3203 373.277 66.2266 372.495 67.0547C371.714 67.8828 370.839 68.6016 369.87 69.2109L373.597 78L366.448 78L363.519 71.2266L355.995 71.2734V78Z" fill="white"/>
<path d="M418.733 78L412.03 78V54C412.03 53.5312 411.936 53.0937 411.748 52.6875C411.577 52.2812 411.334 51.9297 411.022 51.6328C410.725 51.3203 410.373 51.0781 409.967 50.9062C409.561 50.7344 409.123 50.6484 408.655 50.6484C408.186 50.6484 407.748 50.7344 407.342 50.9062C406.936 51.0781 406.577 51.3203 406.264 51.6328C405.967 51.9297 405.733 52.2812 405.561 52.6875C405.389 53.0937 405.303 53.5312 405.303 54V78H398.577V54C398.577 53.5312 398.491 53.0937 398.319 52.6875C398.147 52.2812 397.905 51.9297 397.592 51.6328C397.295 51.3203 396.944 51.0781 396.538 50.9062C396.131 50.7344 395.694 50.6484 395.225 50.6484C394.756 50.6484 394.319 50.7344 393.913 50.9062C393.506 51.0781 393.147 51.3203 392.834 51.6328C392.538 51.9297 392.303 52.2812 392.131 52.6875C391.959 53.0937 391.873 53.5312 391.873 54V78H385.147V54C385.147 52.6094 385.405 51.3047 385.92 50.0859C386.452 48.8516 387.17 47.7812 388.077 46.875C388.998 45.9531 390.069 45.2344 391.288 44.7187C392.522 44.1875 393.834 43.9219 395.225 43.9219C396.475 43.9219 397.678 44.1484 398.834 44.6016C399.991 45.0391 401.03 45.6797 401.952 46.5234C402.873 45.6797 403.905 45.0391 405.045 44.6016C406.202 44.1484 407.405 43.9219 408.655 43.9219C410.045 43.9219 411.35 44.1875 412.569 44.7187C413.803 45.2344 414.873 45.9531 415.78 46.875C416.702 47.7812 417.42 48.8516 417.936 50.0859C418.467 51.3047 418.733 52.6094 418.733 54V78Z" fill="white"/>
<path d="M449.338 64.5703V57.8437C449.338 56.9219 449.158 56.0547 448.798 55.2422C448.455 54.4141 447.978 53.6953 447.369 53.0859C446.759 52.4766 446.041 52 445.213 51.6562C444.4 51.2969 443.533 51.1172 442.611 51.1172C441.689 51.1172 440.814 51.2969 439.986 51.6562C439.173 52 438.463 52.4766 437.853 53.0859C437.244 53.6953 436.759 54.4141 436.4 55.2422C436.056 56.0547 435.884 56.9219 435.884 57.8437V64.5703H449.338ZM456.064 78H449.338V71.2734H435.884V78H429.181V57.8437C429.181 55.9844 429.533 54.2422 430.236 52.6172C430.939 50.9766 431.892 49.5469 433.095 48.3281C434.314 47.1094 435.736 46.1484 437.361 45.4453C439.002 44.7422 440.752 44.3906 442.611 44.3906C444.47 44.3906 446.213 44.7422 447.838 45.4453C449.478 46.1484 450.908 47.1094 452.127 48.3281C453.345 49.5469 454.306 50.9766 455.009 52.6172C455.713 54.2422 456.064 55.9844 456.064 57.8437V78Z" fill="white"/>
<path d="M137.924 114C137.548 114 137.264 113.904 137.072 113.712C136.888 113.52 136.776 113.268 136.736 112.956H136.676C136.556 113.332 136.336 113.624 136.016 113.832C135.704 114.04 135.304 114.144 134.816 114.144C134.184 114.144 133.68 113.98 133.304 113.652C132.928 113.316 132.74 112.856 132.74 112.272C132.74 111.672 132.96 111.216 133.4 110.904C133.848 110.584 134.532 110.424 135.452 110.424H136.64V109.944C136.64 109.104 136.196 108.684 135.308 108.684C134.908 108.684 134.584 108.764 134.336 108.924C134.088 109.076 133.88 109.28 133.712 109.536L132.932 108.9C133.108 108.564 133.404 108.276 133.82 108.036C134.236 107.788 134.772 107.664 135.428 107.664C136.212 107.664 136.828 107.852 137.276 108.228C137.724 108.604 137.948 109.148 137.948 109.86V112.968H138.728V114H137.924ZM135.188 113.184C135.612 113.184 135.96 113.088 136.232 112.896C136.504 112.704 136.64 112.456 136.64 112.152V111.252H135.476C134.532 111.252 134.06 111.536 134.06 112.104V112.344C134.06 112.624 134.16 112.836 134.36 112.98C134.56 113.116 134.836 113.184 135.188 113.184Z" fill="white"/>
<path d="M140.956 114L143.26 110.856L141.052 107.808H142.576L143.392 108.984L144.04 109.92H144.112L144.748 108.984L145.564 107.808H146.98L144.76 110.808L147.088 114H145.552L144.628 112.668L143.992 111.756H143.92L143.296 112.668L142.384 114H140.956Z" fill="white"/>
<path d="M155.351 114H149.567V112.716L152.303 110.328C152.735 109.944 153.067 109.58 153.299 109.236C153.539 108.892 153.659 108.528 153.659 108.144V108.012C153.659 107.572 153.539 107.236 153.299 107.004C153.059 106.764 152.711 106.644 152.255 106.644C151.791 106.644 151.431 106.768 151.175 107.016C150.927 107.264 150.747 107.58 150.635 107.964L149.459 107.52C149.539 107.256 149.655 107.004 149.807 106.764C149.959 106.516 150.151 106.296 150.383 106.104C150.623 105.912 150.903 105.76 151.223 105.648C151.551 105.536 151.927 105.48 152.351 105.48C152.783 105.48 153.167 105.544 153.503 105.672C153.847 105.792 154.135 105.96 154.367 106.176C154.599 106.392 154.775 106.652 154.895 106.956C155.015 107.252 155.075 107.58 155.075 107.94C155.075 108.276 155.023 108.588 154.919 108.876C154.823 109.156 154.683 109.428 154.499 109.692C154.323 109.948 154.111 110.196 153.863 110.436C153.615 110.676 153.343 110.916 153.047 111.156L151.019 112.86H155.351V114Z" fill="white"/>
<path d="M163.338 106.788H159.534L159.318 109.764H159.414C159.606 109.436 159.838 109.176 160.11 108.984C160.382 108.784 160.754 108.684 161.226 108.684C161.586 108.684 161.918 108.744 162.222 108.864C162.534 108.984 162.802 109.156 163.026 109.38C163.258 109.604 163.438 109.88 163.566 110.208C163.702 110.528 163.77 110.892 163.77 111.3C163.77 111.716 163.702 112.1 163.566 112.452C163.43 112.796 163.234 113.096 162.978 113.352C162.722 113.6 162.406 113.796 162.03 113.94C161.654 114.076 161.226 114.144 160.746 114.144C160.37 114.144 160.034 114.1 159.738 114.012C159.45 113.932 159.19 113.824 158.958 113.688C158.734 113.544 158.538 113.384 158.37 113.208C158.202 113.024 158.054 112.836 157.926 112.644L158.91 111.876C159.014 112.036 159.122 112.188 159.234 112.332C159.354 112.468 159.486 112.588 159.63 112.692C159.774 112.796 159.938 112.876 160.122 112.932C160.314 112.988 160.53 113.016 160.77 113.016C161.29 113.016 161.686 112.876 161.958 112.596C162.23 112.308 162.366 111.92 162.366 111.432V111.336C162.366 110.848 162.226 110.468 161.946 110.196C161.674 109.924 161.282 109.788 160.77 109.788C160.394 109.788 160.098 109.856 159.882 109.992C159.666 110.128 159.478 110.28 159.318 110.448L158.202 110.292L158.514 105.624H163.338V106.788Z" fill="white"/>
<path d="M169.225 114.144C168.753 114.144 168.333 114.068 167.965 113.916C167.597 113.764 167.285 113.548 167.029 113.268C166.773 112.98 166.577 112.636 166.441 112.236C166.305 111.836 166.237 111.384 166.237 110.88C166.237 110.272 166.329 109.7 166.513 109.164C166.697 108.628 166.937 108.136 167.233 107.688C167.529 107.24 167.857 106.844 168.217 106.5C168.577 106.148 168.933 105.856 169.285 105.624H171.085C170.605 105.968 170.173 106.3 169.789 106.62C169.405 106.94 169.069 107.268 168.781 107.604C168.501 107.94 168.265 108.296 168.073 108.672C167.881 109.04 167.733 109.452 167.629 109.908L167.713 109.932C167.801 109.764 167.905 109.608 168.025 109.464C168.145 109.312 168.285 109.18 168.445 109.068C168.605 108.956 168.789 108.868 168.997 108.804C169.205 108.74 169.441 108.708 169.705 108.708C170.065 108.708 170.397 108.768 170.701 108.888C171.005 109.008 171.269 109.184 171.493 109.416C171.717 109.64 171.889 109.912 172.009 110.232C172.137 110.552 172.201 110.912 172.201 111.312C172.201 111.728 172.129 112.112 171.985 112.464C171.849 112.808 171.649 113.104 171.385 113.352C171.129 113.6 170.817 113.796 170.449 113.94C170.081 114.076 169.673 114.144 169.225 114.144ZM169.213 113.064C169.725 113.064 170.121 112.928 170.401 112.656C170.681 112.376 170.821 111.984 170.821 111.48V111.36C170.821 110.856 170.681 110.468 170.401 110.196C170.121 109.916 169.725 109.776 169.213 109.776C168.709 109.776 168.317 109.916 168.037 110.196C167.757 110.468 167.617 110.856 167.617 111.36V111.48C167.617 111.984 167.757 112.376 168.037 112.656C168.317 112.928 168.709 113.064 169.213 113.064Z" fill="white"/>
<path d="M388.854 114L386.634 107.808H387.99L388.842 110.424L389.646 112.908H389.718L390.522 110.424L391.374 107.808H392.682L390.462 114H388.854Z" fill="white"/>
<path d="M398.053 114.144C397.557 114.144 397.121 114.084 396.745 113.964C396.369 113.836 396.053 113.664 395.797 113.448C395.541 113.232 395.345 112.976 395.209 112.68C395.081 112.384 395.017 112.06 395.017 111.708C395.017 111.148 395.173 110.7 395.485 110.364C395.797 110.028 396.205 109.792 396.709 109.656V109.56C396.277 109.408 395.929 109.168 395.665 108.84C395.401 108.512 395.269 108.108 395.269 107.628C395.269 106.98 395.509 106.46 395.989 106.068C396.477 105.676 397.165 105.48 398.053 105.48C398.941 105.48 399.625 105.676 400.105 106.068C400.593 106.46 400.837 106.98 400.837 107.628C400.837 108.108 400.705 108.512 400.441 108.84C400.177 109.168 399.829 109.408 399.397 109.56V109.656C399.901 109.792 400.309 110.028 400.621 110.364C400.933 110.7 401.089 111.148 401.089 111.708C401.089 112.06 401.021 112.384 400.885 112.68C400.757 112.976 400.565 113.232 400.309 113.448C400.053 113.664 399.737 113.836 399.361 113.964C398.985 114.084 398.549 114.144 398.053 114.144ZM398.053 113.076C398.581 113.076 398.985 112.96 399.265 112.728C399.553 112.496 399.697 112.168 399.697 111.744V111.492C399.697 111.068 399.553 110.74 399.265 110.508C398.985 110.276 398.581 110.16 398.053 110.16C397.525 110.16 397.117 110.276 396.829 110.508C396.549 110.74 396.409 111.068 396.409 111.492V111.744C396.409 112.168 396.549 112.496 396.829 112.728C397.117 112.96 397.525 113.076 398.053 113.076ZM398.053 109.128C398.533 109.128 398.897 109.024 399.145 108.816C399.401 108.6 399.529 108.3 399.529 107.916V107.76C399.529 107.376 399.401 107.08 399.145 106.872C398.897 106.656 398.533 106.548 398.053 106.548C397.573 106.548 397.205 106.656 396.949 106.872C396.701 107.08 396.577 107.376 396.577 107.76V107.916C396.577 108.3 396.701 108.6 396.949 108.816C397.205 109.024 397.573 109.128 398.053 109.128Z" fill="white"/>
<path d="M406.448 114.12C406.064 114.12 405.792 114.04 405.632 113.88C405.48 113.72 405.404 113.524 405.404 113.292V112.98C405.404 112.748 405.48 112.552 405.632 112.392C405.792 112.232 406.064 112.152 406.448 112.152C406.832 112.152 407.1 112.232 407.252 112.392C407.412 112.552 407.492 112.748 407.492 112.98V113.292C407.492 113.524 407.412 113.72 407.252 113.88C407.1 114.04 406.832 114.12 406.448 114.12Z" fill="white"/>
<path d="M415.588 114V112.368H411.604V111.216L415.108 105.624H416.872V111.312H418.048V112.368H416.872V114H415.588ZM412.744 111.312H415.588V106.86H415.516L412.744 111.312Z" fill="white"/>
<path d="M428.946 112.944H430.59V108.864H428.946V107.808H431.898V109.452H431.97C432.026 109.236 432.106 109.028 432.21 108.828C432.314 108.628 432.446 108.456 432.606 108.312C432.766 108.16 432.962 108.04 433.194 107.952C433.426 107.856 433.698 107.808 434.01 107.808H434.754V109.056H433.53C433.05 109.056 432.658 109.2 432.354 109.488C432.05 109.768 431.898 110.148 431.898 110.628V112.944L434.142 112.944V114H428.946V112.944Z" fill="white"/>
<path d="M439.682 109.08C440.218 109.08 440.614 108.968 440.87 108.744C441.134 108.512 441.266 108.224 441.266 107.88V107.796C441.266 107.412 441.138 107.12 440.882 106.92C440.634 106.712 440.298 106.608 439.874 106.608C439.466 106.608 439.118 106.7 438.83 106.884C438.55 107.068 438.314 107.32 438.122 107.64L437.21 106.86C437.338 106.676 437.486 106.5 437.654 106.332C437.822 106.164 438.014 106.02 438.23 105.9C438.446 105.772 438.694 105.672 438.974 105.6C439.254 105.52 439.57 105.48 439.922 105.48C440.314 105.48 440.678 105.528 441.014 105.624C441.35 105.72 441.642 105.864 441.89 106.056C442.138 106.24 442.33 106.468 442.466 106.74C442.602 107.004 442.67 107.304 442.67 107.64C442.67 107.904 442.626 108.144 442.538 108.36C442.458 108.576 442.342 108.768 442.19 108.936C442.046 109.096 441.874 109.228 441.674 109.332C441.474 109.436 441.262 109.512 441.038 109.56V109.62C441.278 109.668 441.506 109.748 441.722 109.86C441.938 109.964 442.13 110.104 442.298 110.28C442.466 110.448 442.598 110.652 442.694 110.892C442.79 111.124 442.838 111.392 442.838 111.696C442.838 112.064 442.766 112.4 442.622 112.704C442.478 113 442.27 113.256 441.998 113.472C441.734 113.688 441.414 113.856 441.038 113.976C440.662 114.088 440.242 114.144 439.778 114.144C439.386 114.144 439.038 114.1 438.734 114.012C438.438 113.932 438.174 113.824 437.942 113.688C437.71 113.544 437.506 113.384 437.33 113.208C437.162 113.024 437.014 112.836 436.886 112.644L437.882 111.876C438.09 112.212 438.334 112.488 438.614 112.704C438.902 112.912 439.294 113.016 439.79 113.016C440.318 113.016 440.722 112.896 441.002 112.656C441.282 112.408 441.422 112.068 441.422 111.636V111.54C441.422 111.108 441.274 110.78 440.978 110.556C440.69 110.324 440.27 110.208 439.718 110.208H438.818V109.08H439.682Z" fill="white"/>
<path d="M451.365 114H445.581V112.716L448.317 110.328C448.749 109.944 449.081 109.58 449.313 109.236C449.553 108.892 449.673 108.528 449.673 108.144V108.012C449.673 107.572 449.553 107.236 449.313 107.004C449.073 106.764 448.725 106.644 448.269 106.644C447.805 106.644 447.445 106.768 447.189 107.016C446.941 107.264 446.761 107.58 446.649 107.964L445.473 107.52C445.553 107.256 445.669 107.004 445.821 106.764C445.973 106.516 446.165 106.296 446.397 106.104C446.637 105.912 446.917 105.76 447.237 105.648C447.565 105.536 447.941 105.48 448.365 105.48C448.797 105.48 449.181 105.544 449.517 105.672C449.861 105.792 450.149 105.96 450.381 106.176C450.613 106.392 450.789 106.652 450.909 106.956C451.029 107.252 451.089 107.58 451.089 107.94C451.089 108.276 451.037 108.588 450.933 108.876C450.837 109.156 450.697 109.428 450.513 109.692C450.337 109.948 450.125 110.196 449.877 110.436C449.629 110.676 449.357 110.916 449.061 111.156L447.033 112.86H451.365V114Z" fill="white"/>
<path d="M48 39.3431L29.1716 58.1716L34.8284 63.8284L44 54.6569V79L52 79V54.6569L61.1716 63.8284L66.8284 58.1716L48 39.3431Z" fill="white"/>
<path fill-rule="evenodd" clip-rule="evenodd" d="M0 13L96 13L96 109L0 109L0 13ZM8 21L88 21L88 101L8 101L8 21Z" fill="white"/>
</svg>
