<svg width="64" height="64" viewBox="0 0 64 64" fill="none" xmlns="http://www.w3.org/2000/svg">
<path d="M32 0V2H38L37 3L47 7L46 8L52 10L50 11L53 14H51L53 28C54.3333 30 55 32.3333 55 35C55 37.6667 54.1667 40 52.5 42L48 54C46 58 38 64 32 64C26 64 18 58 16 54L11.5 42C9.83333 40 9 37.6667 9 35C9 32.3333 9.66667 30 11 28V11L13 12L17 6L18 8L32 0ZM36 20C30.6667 16.6667 25.3333 15 20 15C17.3333 16.3333 15.6667 19.3333 15 24L14 37C14 40.5 18.5 51 19 52C23 59 31 60.5 32 60.5C33 60.5 41 59 45 52C45.5 51 50 40.5 50 37L49.5 26L47 20L46 21L42 19V21L37 18M28.5 44H35.5C35.7652 44 36.0196 44.1054 36.2071 44.2929C36.3946 44.4804 36.5 44.7348 36.5 45C36.5 45.2652 36.3946 45.5196 36.2071 45.7071C36.0196 45.8946 35.7652 46 35.5 46H28.5C28.2348 46 27.9804 45.8946 27.7929 45.7071C27.6054 45.5196 27.5 45.2652 27.5 45C27.5 44.7348 27.6054 44.4804 27.7929 44.2929C27.9804 44.1054 28.2348 44 28.5 44ZM26.5 52H37.5C37.7652 52 38.0196 52.1054 38.2071 52.2929C38.3946 52.4804 38.5 52.7348 38.5 53C38.5 53.2652 38.3946 53.5196 38.2071 53.7071C38.0196 53.8946 37.7652 54 37.5 54H26.5C26.2348 54 25.9804 53.8946 25.7929 53.7071C25.6054 53.5196 25.5 53.2652 25.5 53C25.5 52.7348 25.6054 52.4804 25.7929 52.2929C25.9804 52.1054 26.2348 52 26.5 52Z" fill="white"/>
</svg>
