<svg width="176" height="56" viewBox="0 0 176 56" fill="none" xmlns="http://www.w3.org/2000/svg">
<g clip-path="url(#clip0_30_118)">
<path fill-rule="evenodd" clip-rule="evenodd" d="M0 0H176V8H164C161.791 8 160 9.79086 160 12V24L104 24V20C104 17.7909 102.209 16 100 16H0V0ZM164 48H176V56H0V40H100C102.209 40 104 38.2091 104 36V32L160 32V44C160 46.2091 161.791 48 164 48ZM116 16C113.791 16 112 14.2091 112 12C112 9.79086 113.791 8 116 8H124C126.209 8 128 9.79086 128 12C128 14.2091 126.209 16 124 16H116ZM112 44C112 46.2091 113.791 48 116 48H132C134.209 48 136 46.2091 136 44C136 41.7909 134.209 40 132 40H116C113.791 40 112 41.7909 112 44ZM168 16H176V40H168V16ZM4 26C6.20914 26 8 24.2091 8 22C8 19.7909 6.20914 18 4 18C1.79086 18 0 19.7909 0 22C0 24.2091 1.79086 26 4 26ZM16 26C18.2091 26 20 24.2091 20 22C20 19.7909 18.2091 18 16 18C13.7909 18 12 19.7909 12 22C12 24.2091 13.7909 26 16 26ZM32 22C32 24.2091 30.2091 26 28 26C25.7909 26 24 24.2091 24 22C24 19.7909 25.7909 18 28 18C30.2091 18 32 19.7909 32 22ZM40 26C42.2091 26 44 24.2091 44 22C44 19.7909 42.2091 18 40 18C37.7909 18 36 19.7909 36 22C36 24.2091 37.7909 26 40 26ZM56 22C56 24.2091 54.2091 26 52 26C49.7909 26 48 24.2091 48 22C48 19.7909 49.7909 18 52 18C54.2091 18 56 19.7909 56 22ZM64 26C66.2091 26 68 24.2091 68 22C68 19.7909 66.2091 18 64 18C61.7909 18 60 19.7909 60 22C60 24.2091 61.7909 26 64 26ZM80 22C80 24.2091 78.2091 26 76 26C73.7909 26 72 24.2091 72 22C72 19.7909 73.7909 18 76 18C78.2091 18 80 19.7909 80 22ZM88 26C90.2091 26 92 24.2091 92 22C92 19.7909 90.2091 18 88 18C85.7909 18 84 19.7909 84 22C84 24.2091 85.7909 26 88 26ZM8 34C8 36.2091 6.20914 38 4 38C1.79086 38 0 36.2091 0 34C0 31.7909 1.79086 30 4 30C6.20914 30 8 31.7909 8 34ZM16 38C18.2091 38 20 36.2091 20 34C20 31.7909 18.2091 30 16 30C13.7909 30 12 31.7909 12 34C12 36.2091 13.7909 38 16 38ZM32 34C32 36.2091 30.2091 38 28 38C25.7909 38 24 36.2091 24 34C24 31.7909 25.7909 30 28 30C30.2091 30 32 31.7909 32 34ZM40 38C42.2091 38 44 36.2091 44 34C44 31.7909 42.2091 30 40 30C37.7909 30 36 31.7909 36 34C36 36.2091 37.7909 38 40 38ZM56 34C56 36.2091 54.2091 38 52 38C49.7909 38 48 36.2091 48 34C48 31.7909 49.7909 30 52 30C54.2091 30 56 31.7909 56 34ZM64 38C66.2091 38 68 36.2091 68 34C68 31.7909 66.2091 30 64 30C61.7909 30 60 31.7909 60 34C60 36.2091 61.7909 38 64 38ZM80 34C80 36.2091 78.2091 38 76 38C73.7909 38 72 36.2091 72 34C72 31.7909 73.7909 30 76 30C78.2091 30 80 31.7909 80 34ZM88 38C90.2091 38 92 36.2091 92 34C92 31.7909 90.2091 30 88 30C85.7909 30 84 31.7909 84 34C84 36.2091 85.7909 38 88 38Z" fill="white"/>
</g>
<defs>
<clipPath id="clip0_30_118">
<rect width="176" height="56" fill="white"/>
</clipPath>
</defs>
</svg>
