<svg width="128" height="128" viewBox="0 0 128 128" fill="none" xmlns="http://www.w3.org/2000/svg">
<g clip-path="url(#clip0_47_773)">
<path fill-rule="evenodd" clip-rule="evenodd" d="M31.5288 1.5L47.5288 17.5L79.5288 17.5L95.5288 1.5L95.5288 81.5L63.5288 97.5L31.5288 81.5L31.5288 1.5ZM59.5288 35.5C59.5288 41.0228 55.0517 45.5 49.5288 45.5C44.006 45.5 39.5288 41.0228 39.5288 35.5C39.5288 29.9772 44.006 25.5 49.5288 25.5C55.0517 25.5 59.5288 29.9772 59.5288 35.5ZM77.7788 45C83.1636 45 87.5288 40.6348 87.5288 35.25C87.5288 29.8652 83.1636 25.5 77.7788 25.5C72.394 25.5 68.0288 29.8652 68.0288 35.25C68.0288 40.6348 72.394 45 77.7788 45Z" fill="white"/>
<path d="M21.5 126.001L21.5 110.545H29.996C31.564 110.545 32.756 110.913 33.572 111.649C34.388 112.385 34.796 113.441 34.796 114.817C34.796 115.617 34.644 116.289 34.34 116.833C34.052 117.377 33.668 117.809 33.188 118.129C33.844 118.385 34.364 118.761 34.748 119.257C35.148 119.737 35.348 120.457 35.348 121.417C35.348 122.873 34.9 124.001 34.004 124.801C33.108 125.601 31.836 126.001 30.188 126.001H21.5ZM25.844 116.713H28.772C29.876 116.713 30.428 116.217 30.428 115.225C30.428 114.729 30.292 114.353 30.02 114.097C29.764 113.841 29.308 113.713 28.652 113.713H25.844V116.713ZM25.844 122.857H28.964C29.572 122.857 30.02 122.729 30.308 122.473C30.596 122.217 30.74 121.793 30.74 121.201C30.74 120.705 30.596 120.329 30.308 120.073C30.02 119.817 29.54 119.689 28.868 119.689H25.844V122.857Z" fill="white"/>
<path d="M51.4391 126.241C49.9991 126.241 48.7271 126.009 47.6231 125.545C46.5351 125.065 45.6791 124.369 45.0551 123.457C44.4311 122.529 44.1191 121.393 44.1191 120.049V110.545H48.6311V119.569C48.6311 121.457 49.5671 122.401 51.4391 122.401C52.3351 122.401 53.0231 122.169 53.5031 121.705C53.9831 121.241 54.2231 120.529 54.2231 119.569V110.545H58.7351V120.049C58.7351 121.393 58.4231 122.529 57.7991 123.457C57.1911 124.369 56.3351 125.065 55.2311 125.545C54.1431 126.009 52.8791 126.241 51.4391 126.241Z" fill="white"/>
<path d="M67.9859 126.001V110.545H76.4819C78.0499 110.545 79.2419 110.913 80.0579 111.649C80.8739 112.385 81.2819 113.441 81.2819 114.817C81.2819 115.617 81.1299 116.289 80.8259 116.833C80.5379 117.377 80.1539 117.809 79.6739 118.129C80.3299 118.385 80.8499 118.761 81.2339 119.257C81.6339 119.737 81.8339 120.457 81.8339 121.417C81.8339 122.873 81.3859 124.001 80.4899 124.801C79.5939 125.601 78.3219 126.001 76.6739 126.001L67.9859 126.001ZM72.3299 116.713H75.2579C76.3619 116.713 76.9139 116.217 76.9139 115.225C76.9139 114.729 76.7779 114.353 76.5059 114.097C76.2499 113.841 75.7939 113.713 75.1379 113.713H72.3299V116.713ZM72.3299 122.857H75.4499C76.0579 122.857 76.5059 122.729 76.7939 122.473C77.0819 122.217 77.2259 121.793 77.2259 121.201C77.2259 120.705 77.0819 120.329 76.7939 120.073C76.5059 119.817 76.0259 119.689 75.3539 119.689H72.3299V122.857Z" fill="white"/>
<path d="M98.141 126.241C95.581 126.241 93.621 125.617 92.261 124.369C90.917 123.121 90.245 121.105 90.245 118.321C90.245 116.401 90.549 114.857 91.157 113.689C91.765 112.505 92.653 111.649 93.821 111.121C95.005 110.577 96.445 110.305 98.141 110.305C99.837 110.305 101.269 110.577 102.437 111.121C103.621 111.649 104.517 112.505 105.125 113.689C105.733 114.857 106.037 116.401 106.037 118.321C106.037 121.105 105.357 123.121 103.997 124.369C102.637 125.617 100.685 126.241 98.141 126.241ZM98.141 122.401C99.293 122.401 100.125 122.081 100.637 121.441C101.165 120.785 101.429 119.745 101.429 118.321C101.429 116.801 101.165 115.729 100.637 115.105C100.125 114.465 99.293 114.145 98.141 114.145C96.989 114.145 96.149 114.465 95.621 115.105C95.109 115.729 94.853 116.801 94.853 118.321C94.853 119.745 95.109 120.785 95.621 121.441C96.149 122.081 96.989 122.401 98.141 122.401Z" fill="white"/>
</g>
<defs>
<clipPath id="clip0_47_773">
<rect width="128" height="128" fill="white"/>
</clipPath>
</defs>
</svg>
