<svg width="384" height="128" viewBox="0 0 384 128" fill="none" xmlns="http://www.w3.org/2000/svg">
<g clip-path="url(#clip0_39_152)">
<path d="M33 96L85.6863 43.3137C91.9347 37.0653 102.065 37.0653 108.314 43.3137L149.686 84.6863C155.935 90.9347 166.065 90.9347 172.314 84.6863L213.686 43.3137C219.935 37.0653 230.065 37.0653 236.314 43.3137L277.686 84.6863C283.935 90.9347 294.065 90.9347 300.314 84.6863L353 32" stroke="white" stroke-width="4"/>
<path d="M350 96L298.62 43.6385C292.348 37.2467 282.052 37.2467 275.78 43.6385L235.82 84.3615C229.548 90.7533 219.252 90.7533 212.98 84.3615L173.02 43.6385C166.748 37.2467 156.452 37.2467 150.18 43.6385L110.22 84.3615C103.948 90.7533 93.6517 90.7533 87.3797 84.3615L36 32" stroke="white" stroke-opacity="0.5" stroke-width="4"/>
<rect x="1" y="1" width="382" height="126" stroke="white" stroke-width="2"/>
</g>
<defs>
<clipPath id="clip0_39_152">
<rect width="384" height="128" fill="white"/>
</clipPath>
</defs>
</svg>
