<svg width="128" height="128" viewBox="0 0 128 128" fill="none" xmlns="http://www.w3.org/2000/svg">
<path fill-rule="evenodd" clip-rule="evenodd" d="M111.637 6.78125V9.125C111.556 9.21094 111.438 9.3112 111.281 9.42578C111.128 9.53776 110.926 9.63672 110.676 9.72266C110.428 9.80599 110.126 9.84766 109.77 9.84766C109.454 9.84766 109.168 9.79818 108.91 9.69922C108.655 9.60026 108.435 9.45052 108.25 9.25C108.068 9.04688 107.928 8.79427 107.832 8.49219C107.736 8.1875 107.688 7.82682 107.688 7.41016V6.44141C107.688 6.02995 107.733 5.67188 107.824 5.36719C107.918 5.0599 108.053 4.80469 108.23 4.60156C108.408 4.39844 108.618 4.2474 108.863 4.14844C109.111 4.04948 109.389 4 109.699 4C110.126 4 110.477 4.07161 110.75 4.21484C111.026 4.35807 111.234 4.57031 111.375 4.85156C111.518 5.13281 111.604 5.47786 111.633 5.88672H110.527C110.509 5.64714 110.469 5.45964 110.406 5.32422C110.346 5.1888 110.262 5.09245 110.152 5.03516C110.043 4.97526 109.901 4.94531 109.727 4.94531C109.576 4.94531 109.444 4.97266 109.332 5.02734C109.22 5.07943 109.126 5.16536 109.051 5.28516C108.975 5.40495 108.919 5.55859 108.883 5.74609C108.846 5.93359 108.828 6.16276 108.828 6.43359V7.41016C108.828 7.67839 108.849 7.90755 108.891 8.09766C108.932 8.28776 108.993 8.44271 109.074 8.5625C109.158 8.68229 109.262 8.76953 109.387 8.82422C109.514 8.8763 109.664 8.90234 109.836 8.90234C109.974 8.90234 110.085 8.88802 110.168 8.85938C110.251 8.83073 110.318 8.80078 110.367 8.76953C110.419 8.73568 110.462 8.70964 110.496 8.69141V7.64453H109.68V6.78125H111.637ZM98.3477 4.08203H97.8945H97.3438H96.9375V9.76953H98.043V7.83203L97.9767 6.15762L99.0781 9.76953H99.9336L101.047 5.85443L100.973 7.83203V9.76953H102.074V4.08203H101.551H101.113H100.664L99.5078 7.97266L98.3477 4.08203ZM105.238 4.08203H105.523L107.316 9.76953H106.102L105.793 8.59766H104.221L103.914 9.76953H102.707L104.484 4.08203H104.758H105.238ZM104.469 7.64844H105.543L105.004 5.60353L104.469 7.64844ZM60 15.0195H40C26.7452 15.0195 16 25.7647 16 39.0195V87.0195C16 100.274 26.7452 111.02 40 111.02H60V99.0195H40C37.7909 99.0195 36 97.2287 36 95.0195C36 92.8104 37.7909 91.0195 40 91.0195H52H60H88C90.2091 91.0195 92 89.2287 92 87.0195C92 84.8104 90.2091 83.0195 88 83.0195H60H52H40C33.3726 83.0195 28 77.647 28 71.0195C28 64.3921 33.3726 59.0195 40 59.0195H60L88 59.0195C90.2091 59.0195 92 57.2287 92 55.0195C92 52.8104 90.2091 51.0195 88 51.0195L52 51.0195L40 51.0195C33.3726 51.0195 28 45.6469 28 39.0195C28 32.3921 33.3726 27.0195 40 27.0195L52 27.0195H60V15.0195ZM68 111.02H88C101.255 111.02 112 100.274 112 87.0195V39.0195C112 25.7647 101.255 15.0195 88 15.0195H68V27.0195L88 27.0195C90.2091 27.0195 92 28.8104 92 31.0195C92 33.2287 90.2091 35.0195 88 35.0195L76 35.0195H40C37.7909 35.0195 36 36.8104 36 39.0195C36 41.2287 37.7909 43.0195 40 43.0195H68H76H88C94.6274 43.0195 100 48.3921 100 55.0195C100 61.647 94.6274 67.0195 88 67.0195L76 67.0195H68H40C37.7909 67.0195 36 68.8104 36 71.0195C36 73.2287 37.7909 75.0195 40 75.0195H68H76H88C94.6274 75.0195 100 80.3921 100 87.0195C100 93.6469 94.6274 99.0195 88 99.0195H76H68V111.02ZM20 123.02C22.2091 123.02 24 121.229 24 119.02C24 116.81 22.2091 115.02 20 115.02C17.7909 115.02 16 116.81 16 119.02C16 121.229 17.7909 123.02 20 123.02Z" fill="white"/>
</svg>
