<svg width="96" height="96" viewBox="0 0 96 96" fill="none" xmlns="http://www.w3.org/2000/svg">
<path fill-rule="evenodd" clip-rule="evenodd" d="M83.3154 35.6577V89.1445L83.1191 89.3388L82.9227 89.5303L82.7263 89.7186L82.5299 89.9035L82.3335 90.0851L82.1407 90.2606L81.9478 90.4332L81.7549 90.6026L81.5621 90.7691L81.3653 90.9356L81.1685 91.0993L80.9716 91.2601L80.7748 91.4177L80.578 91.5724L80.3812 91.7238L80.1844 91.8724L80.0122 92.0003L79.84 92.1253L79.6678 92.2484L79.4956 92.3692L79.3234 92.488L79.1511 92.6045L78.979 92.7187L78.8067 92.8305L78.6263 92.9456L78.4459 93.0583L78.2655 93.1683L78.0851 93.2763L77.9047 93.3819L77.7243 93.4853L77.57 93.5716L77.4157 93.6565L77.2614 93.7395L77.1071 93.8211L76.9528 93.9008L76.8013 93.9777L76.6497 94.0527L76.4982 94.1263L76.3467 94.1985L76.192 94.2707L76.0374 94.341L75.8828 94.4098L75.7281 94.4768L75.5735 94.5424L75.4189 94.6065L75.2642 94.6688L75.1096 94.7296L74.955 94.7891L74.8003 94.8466L74.6457 94.9032L74.491 94.958L74.3364 95.0108L74.1818 95.0627L74.0117 95.1179L73.8416 95.1712L73.6715 95.2226L73.5014 95.2726L73.3313 95.3207L73.177 95.3627L73.0227 95.4033L72.8685 95.4424L72.7142 95.4806L72.5599 95.517L72.4083 95.5514L72.2568 95.5844L72.1053 95.616L71.9537 95.6462L71.7733 95.6806L71.5929 95.7132L71.4125 95.7443L71.2321 95.7731L71.0517 95.8L70.8713 95.8255L70.6909 95.849L70.5105 95.8707L70.3301 95.891L70.1497 95.9094L69.9693 95.9259L69.7889 95.9406L69.6188 95.9533L69.4488 95.9641L69.2787 95.9736L69.1086 95.9816L68.9385 95.9882L68.7581 95.9934L68.5777 95.9972L68.3973 95.9995L68.2169 96L68.0365 95.9986L67.8561 95.9962L67.6435 95.991L67.4309 95.984L67.2183 95.9745L67.0057 95.9632L66.7888 95.9495L66.5718 95.9335L66.3549 95.9156L66.1379 95.8958L65.921 95.8736L65.7041 95.8495L65.4871 95.8231L65.2367 95.7906L64.9863 95.7552L64.7358 95.7174L64.4853 95.6773L64.2349 95.6344L63.9845 95.5891L63.734 95.5415L63.4585 95.4863L63.1831 95.4283L62.9076 95.3674L62.6321 95.3042L62.3567 95.2377L62.0492 95.1608L61.7418 95.0806L61.4343 94.9971L61.1269 94.9108L60.8195 94.8216L60.512 94.7292L60.2046 94.6339L59.8971 94.5358L59.4873 94.4009L59.0774 94.2612L58.6675 94.1174L58.2576 93.9688L57.8478 93.8159L57.4379 93.6593L56.9549 93.4697L56.4719 93.2749L55.9888 93.0753L55.5058 92.8711L54.3858 92.3814L53.2658 91.8715L52.1458 91.345L51.026 90.8054L49.9062 90.2558L48.7865 89.6997L47.667 89.1402L46.2707 88.4425L44.8747 87.7515L43.4789 87.0736L42.0832 86.4146L41.535 86.1627L40.9868 85.9146L40.4387 85.6716L39.8906 85.4339L39.3427 85.2013L38.7945 84.9749L38.2464 84.7551L37.6987 84.5419L37.2893 84.3871L36.8803 84.2362L36.4713 84.09L36.0623 83.948L35.6533 83.8112L35.2443 83.6786L34.9231 83.5777L34.6014 83.4805L34.2801 83.3862L33.9589 83.2951L33.6377 83.2074L33.3164 83.1229L33.0414 83.0536L32.7659 82.9871L32.4904 82.9229L32.2154 82.8616L31.9399 82.8031L31.6649 82.7474L31.3894 82.6946L31.1734 82.655L30.9569 82.6172L30.7408 82.5819L30.5248 82.5479L30.3082 82.5158L30.0922 82.4856L29.8757 82.4578L29.6804 82.4342L29.4846 82.412L29.2888 82.3913L29.0931 82.3729L28.8978 82.3559L28.7053 82.3408L28.5133 82.3271L28.3214 82.3153L28.1289 82.3054L27.9331 82.2969L27.7369 82.2903L27.5411 82.2856L27.3449 82.2828L27.1491 82.2814L26.9529 82.2823L26.7571 82.2851L26.5854 82.2889L26.4137 82.2941L26.2425 82.3012L26.0712 82.3092L25.8995 82.3191L25.7283 82.3309L25.5566 82.3437L25.3853 82.3583L25.2056 82.3753L25.0259 82.3936L24.8466 82.4139L24.6669 82.4361L24.4872 82.4597L24.3079 82.4856L24.1542 82.5088L24.0008 82.5338L23.8471 82.5597L23.6938 82.5871L23.54 82.6158L23.389 82.6451L23.2385 82.6762L23.0876 82.7083L22.9366 82.7418L22.7829 82.7772L22.6291 82.8144L22.4753 82.8526L22.3215 82.8927L22.1677 82.9338L22.014 82.9762L21.8602 83.0206L21.7064 83.0663L21.5526 83.1135L21.3988 83.1616L21.245 83.2121L21.0913 83.2635L20.9375 83.3163L20.7837 83.3711L20.6144 83.4329L20.4455 83.4965L20.2761 83.5616L20.1073 83.6291L19.9379 83.6984L19.7846 83.7631L19.6313 83.8291L19.478 83.8966L19.3247 83.9659L19.1714 84.0367L19.0204 84.1074L18.8699 84.1801L18.7195 84.2546L18.5685 84.3301L18.4152 84.4093L18.2614 84.49L18.1076 84.5721L17.9543 84.656L17.8005 84.7414L17.6468 84.8292L17.4934 84.9178L17.3142 85.024L17.1349 85.1325L16.9557 85.2429L16.7764 85.3561L16.5972 85.4716L16.4179 85.5896L16.249 85.7028L16.0802 85.8184L15.9113 85.9358L15.7424 86.0556L15.5735 86.1778L15.3947 86.3094L15.2155 86.4438L15.0362 86.5807L14.8575 86.7198L14.6782 86.8618L14.4989 87.0061L14.3305 87.1444L14.1617 87.2854L13.9928 87.4283L13.8239 87.5736L13.655 87.7213L13.4668 87.8887L13.2786 88.059L13.0904 88.2326L12.9017 88.409L12.7135 88.5883L12.5253 88.7709L12.3371 88.9558L12.1488 89.1445L11.9998 35.6577L12.0017 35.3012L12.0073 34.9446L12.0158 34.5882L12.0285 34.2318L12.0446 33.8756L12.0639 33.5195L12.0875 33.1637L12.1139 32.8081L12.1441 32.4529L12.1781 32.0979L12.2153 31.7433L12.2564 31.389L12.3007 31.0352L12.3488 30.6819L12.4003 30.3291L12.4555 29.9768L12.5139 29.6251L12.5762 29.2739L12.6418 28.9234L12.7106 28.5736L12.7833 28.2245L12.8592 27.8761L12.939 27.5286L13.022 27.1818L13.1083 26.8358L13.1984 26.4908L13.2918 26.1467L13.3885 25.8035L13.489 25.4613L13.5928 25.1201L13.6999 24.78L13.8102 24.441L13.9239 24.1031L14.0414 23.7663L14.1617 23.4308L14.2857 23.0964L14.4131 22.7633L14.5438 22.4316L14.6777 22.1011L14.8145 21.7719L14.9551 21.4442L15.099 21.1179L15.2462 20.793L15.3962 20.4697L15.5499 20.1479L15.7066 19.8276L15.8665 19.5088L16.0297 19.1917L16.1957 18.8763L16.3651 18.5625L16.5377 18.2505L16.7132 17.9401L16.892 17.6316L17.0736 17.3248L17.2585 17.0199L17.4467 16.7168L17.6373 16.4157L17.8312 16.1164L18.0284 15.8191L18.2279 15.5239L18.4308 15.2306L18.6364 14.9393L18.8454 14.6502L19.0567 14.3631L19.2714 14.0782L19.4884 13.7954L19.7082 13.5148L19.9313 13.2364L20.1568 12.9602L20.3851 12.6864L20.6162 12.4148L20.8502 12.1456L21.0865 11.8787L21.3257 11.6141L21.5672 11.352L21.8116 11.0924L22.0588 10.8351L22.3083 10.5804L22.5602 10.3281L22.8149 10.0784L23.0716 9.8313L23.3315 9.58671L23.5933 9.34476L23.8574 9.10546L24.1244 8.86875L24.3933 8.63478L24.6646 8.40349L24.9382 8.17494L25.2141 7.94913L25.4924 7.72605L25.7731 7.5058L26.0557 7.28839L26.3401 7.0738L26.6274 6.86204L26.9161 6.65317L27.2071 6.44721L27.5006 6.24418L27.7954 6.04408L28.0926 5.84695L28.3916 5.65279L28.6926 5.46164L28.9954 5.27347L29.3006 5.08837L29.6073 4.90633L29.9153 4.72736L30.2257 4.5515L30.5375 4.37876L30.8512 4.20913L31.1663 4.04261L31.4833 3.8793L31.8022 3.71915L32.1225 3.56221L32.4442 3.40843L32.7673 3.2579L33.0919 3.11063L33.4183 2.96661L33.7457 2.82585L34.0749 2.68839L34.4051 2.55419L34.7368 2.42333L35.0698 2.29578L35.4043 2.17157L35.7396 2.05072L36.076 1.93321L36.4142 1.8191L36.7529 1.70834L37.093 1.60098L37.4341 1.49706L37.7761 1.39653L38.1195 1.29941L38.4634 1.20577L38.8082 1.11553L39.154 1.02878L39.5007 0.945472L39.8484 0.865657L40.1967 0.789285L40.5458 0.716451L40.8955 0.647061L41.246 0.581208L41.5971 0.518847L41.9487 0.459976L42.301 0.404643L42.6538 0.352848L43.0071 0.304591L43.3608 0.259824L43.7151 0.218643L44.0696 0.181L44.4246 0.146894L44.7798 0.116326L45.1354 0.0892966L45.4912 0.0658522L45.8472 0.0459929L46.2034 0.0296709L46.5598 0.0168874L46.9162 0.0076888L47.2727 0.0020753L47.6293 0L47.9859 0.00150926L48.3424 0.00655672L48.6989 0.0151893L49.0553 0.027407L49.4115 0.0431627L49.7675 0.0624559L50.1234 0.0853343L50.479 0.111798L50.8343 0.141752L51.1893 0.175291L51.5439 0.212417L51.8982 0.253032L52.252 0.297232L52.6054 0.344923L52.9583 0.396152L53.3106 0.450919L53.6624 0.509224L54.0135 0.571019L54.3641 0.636353L54.714 0.70513L55.0631 0.777445L55.4115 0.853251L55.7592 0.932547L56.1061 1.01529L56.4521 1.10152L56.7972 1.19115L57.1414 1.28426L57.4846 1.38082L57.8269 1.48083L58.1681 1.58423L58.5083 1.69103L58.8475 1.80122L59.1855 1.91481L59.5223 2.03175L59.858 2.15209L60.1924 2.27578L60.5256 2.40281L60.8575 2.53315L61.1881 2.66679L61.5173 2.80373L61.8452 2.94397L62.1716 3.08747L62.4966 3.23422L62.82 3.38423L63.142 3.53749L63.4624 3.69391L63.7813 3.85359L64.0985 4.01638L64.4141 4.18238L64.728 4.35154L65.0402 4.52377L65.3507 4.69915L65.6594 4.87765L65.9663 5.05917L66.2713 5.2438L66.5745 5.43145L66.8758 5.62212L67.1752 5.81581L67.4727 6.01247L67.7681 6.21211L68.0616 6.41466L68.353 6.62019L68.6423 6.8286L68.9295 7.03988L69.2146 7.254L69.4976 7.47099L69.7784 7.69081L70.057 7.91342L70.3333 8.13876L70.6073 8.36689L70.8791 8.59775L71.1485 8.83134L71.4156 9.06758L71.6803 9.30646L71.9426 9.54803L72.2025 9.79215L72.4599 10.0389L72.7149 10.2882L72.9673 10.54L73.2172 10.7944L73.4645 11.0512L73.7093 11.3105L73.9515 11.5722L74.191 11.8364L74.4279 12.1029L74.6621 12.3718L74.8936 12.643L75.1224 12.9165L75.3484 13.1923L75.5717 13.4703L75.7922 13.7506L76.0098 14.033L76.2247 14.3176L76.4366 14.6043L76.6457 14.8931L76.8519 15.1841L77.0552 15.477L77.2555 15.772L77.4529 16.069L77.6473 16.3679L77.8387 16.6687L78.0271 16.9715L78.2124 17.2761L78.3947 17.5826L78.5739 17.8909L78.75 18.2009L78.923 18.5127L79.0929 18.8262L79.2597 19.1414L79.4232 19.4582L79.5837 19.7767L79.7408 20.0967L79.8949 20.4183L80.0456 20.7415L80.1932 21.0661L80.3375 21.3922L80.4785 21.7196L80.6162 22.0486L80.7507 22.3788L80.8818 22.7104L81.0096 23.0433L81.1341 23.3775L81.2552 23.7128L81.373 24.0494L81.4874 24.3871L81.5984 24.726L81.706 25.0659L81.8102 25.4069L81.911 25.7489L82.0084 26.092L82.1023 26.436L82.1928 26.7808L82.2799 27.1267L82.3634 27.4733L82.4436 27.8207L82.5202 28.169L82.5933 28.518L82.663 28.8677L82.7291 29.2181L82.7918 29.5691L82.8509 29.9208L82.9065 30.2729L82.9586 30.6257L83.0071 30.979L83.0522 31.3327L83.0936 31.6868L83.1316 32.0414L83.166 32.3963L83.1968 32.7516L83.2241 33.1071L83.2478 33.4629L83.268 33.8189L83.2846 34.175L83.2976 34.5314L83.3071 34.8878L83.313 35.2444L83.3154 35.6009L83.3154 35.6577ZM54.7906 35.6579L54.791 35.5866L54.792 35.5153L54.7938 35.444L54.7963 35.3727L54.7995 35.3015L54.8035 35.2303L54.8081 35.1591L54.8135 35.088L54.8195 35.0169L54.8262 34.946L54.8337 34.875L54.8419 34.8042L54.8508 34.7334L54.8604 34.6628L54.8707 34.5922L54.8817 34.5218L54.8934 34.4514L54.9059 34.3812L54.919 34.3111L54.9328 34.2411L54.9473 34.1713L54.9625 34.1016L54.9784 34.0321L54.995 33.9627L55.0123 33.8936L55.0303 33.8246L55.049 33.7557L55.0684 33.6871L55.0884 33.6187L55.1091 33.5504L55.1306 33.4824L55.1527 33.4146L55.1754 33.347L55.1989 33.2796L55.223 33.2125L55.2478 33.1457L55.2733 33.0791L55.2994 33.0127L55.3261 32.9466L55.3536 32.8808L55.3817 32.8152L55.4104 32.75L55.4399 32.685L55.4699 32.6203L55.5006 32.556L55.5319 32.4919L55.5639 32.4282L55.5965 32.3647L55.6298 32.3017L55.6636 32.2389L55.6982 32.1765L55.7333 32.1144L55.769 32.0527L55.8054 31.9914L55.8424 31.9304L55.8799 31.8697L55.9181 31.8095L55.9569 31.7497L55.9963 31.6902L56.0363 31.6311L56.0768 31.5725L56.118 31.5143L56.1597 31.4564L56.202 31.399L56.2449 31.342L56.2883 31.2855L56.3323 31.2293L56.3769 31.1737L56.422 31.1184L56.4677 31.0637L56.5139 31.0093L56.5606 30.9555L56.6079 30.9021L56.6558 30.8492L56.7041 30.7968L56.753 30.7449L56.8024 30.6934L56.8523 30.6425L56.9027 30.592L56.9536 30.5421L57.005 30.4926L57.0569 30.4437L57.1093 30.3953L57.1621 30.3474L57.2155 30.3001L57.2693 30.2533L57.3236 30.2071L57.3783 30.1614L57.4335 30.1162L57.4892 30.0716L57.5452 30.0275L57.6018 29.9841L57.6587 29.9412L57.7161 29.8988L57.7739 29.857L57.8321 29.8158L57.8907 29.7752L57.9498 29.7352L58.0092 29.6958L58.069 29.6569L58.1292 29.6187L58.1898 29.5811L58.2507 29.5441L58.312 29.5076L58.3737 29.4718L58.4358 29.4367L58.4981 29.4021L58.5609 29.3682L58.6239 29.3349L58.6873 29.3023L58.7511 29.2702L58.8151 29.2388L58.8794 29.2081L58.9441 29.178L59.0091 29.1485L59.0743 29.1197L59.1398 29.0915L59.2056 29.064L59.2717 29.0372L59.338 29.0111L59.4046 28.9855L59.4714 28.9607L59.5386 28.9365L59.6059 28.913L59.6734 28.8902L59.7412 28.868L59.8092 28.8466L59.8774 28.8258L59.9459 28.8057L60.0145 28.7863L60.0833 28.7676L60.1523 28.7495L60.2215 28.7321L60.2908 28.7155L60.3603 28.6995L60.43 28.6843L60.4998 28.6697L60.5697 28.6558L60.6398 28.6426L60.71 28.6301L60.7804 28.6184L60.8508 28.6073L60.9214 28.5969L60.9921 28.5873L61.0628 28.5784L61.1336 28.5701L61.2045 28.5626L61.2755 28.5558L61.3466 28.5497L61.4177 28.5442L61.4889 28.5396L61.5601 28.5356L61.6313 28.5323L61.7026 28.5298L61.7739 28.5279L61.8452 28.5268L61.9165 28.5264L61.9878 28.5267L62.0591 28.5277L62.1304 28.5294L62.2017 28.5318L62.2729 28.535L62.3441 28.5389L62.4153 28.5434L62.4864 28.5487L62.5575 28.5547L62.6285 28.5615L62.6994 28.5689L62.7703 28.577L62.841 28.5858L62.9117 28.5954L62.9823 28.6056L63.0527 28.6166L63.1231 28.6282L63.1934 28.6406L63.2635 28.6536L63.3334 28.6674L63.4033 28.6819L63.473 28.697L63.5425 28.7129L63.6118 28.7294L63.681 28.7467L63.7501 28.7646L63.8189 28.7832L63.8876 28.8026L63.956 28.8226L64.0243 28.8432L64.0923 28.8646L64.1601 28.8866L64.2277 28.9094L64.2951 28.9328L64.3622 28.9568L64.4291 28.9815L64.4957 29.007L64.5622 29.033L64.6283 29.0597L64.6941 29.0872L64.7597 29.1152L64.825 29.1439L64.89 29.1732L64.9546 29.2032L65.019 29.2339L65.0831 29.2652L65.1469 29.2971L65.2104 29.3297L65.2735 29.3629L65.3363 29.3967L65.3987 29.4311L65.4608 29.4662L65.5225 29.5019L65.5839 29.5382L65.6449 29.5751L65.7055 29.6127L65.7658 29.6508L65.8257 29.6895L65.8852 29.7289L65.9443 29.7688L66.0029 29.8093L66.0612 29.8504L66.1191 29.8921L66.1765 29.9344L66.2336 29.9772L66.2902 30.0206L66.3463 30.0646L66.402 30.109L66.4573 30.1541L66.5121 30.1998L66.5665 30.2459L66.6203 30.2926L66.6738 30.3399L66.7267 30.3877L66.7792 30.436L66.8311 30.4848L66.8826 30.5342L66.9336 30.584L66.9841 30.6344L67.0341 30.6853L67.0836 30.7366L67.1325 30.7885L67.1809 30.8408L67.2289 30.8937L67.2762 30.947L67.3231 31.0007L67.3694 31.055L67.4151 31.1097L67.4603 31.1649L67.505 31.2204L67.5491 31.2765L67.5926 31.333L67.6356 31.3899L67.678 31.4472L67.7198 31.505L67.761 31.5632L67.8017 31.6218L67.8418 31.6808L67.8812 31.7402L67.9201 31.8L67.9584 31.8601L67.9961 31.9207L68.0331 31.9816L68.0696 32.0429L68.1054 32.1046L68.1406 32.1666L68.1752 32.2289L68.2092 32.2916L68.2426 32.3547L68.2753 32.418L68.3074 32.4817L68.3388 32.5457L68.3696 32.6101L68.3998 32.6747L68.4293 32.7396L68.4581 32.8048L68.4863 32.8703L68.5139 32.9361L68.5408 33.0022L68.567 33.0685L68.5926 33.135L68.6175 33.2019L68.6417 33.269L68.6652 33.3363L68.6881 33.4038L68.7103 33.4716L68.7319 33.5395L68.7527 33.6078L68.7728 33.6762L68.7923 33.7448L68.8111 33.8136L68.8292 33.8825L68.8466 33.9517L68.8633 34.021L68.8794 34.0905L68.8947 34.1602L68.9093 34.23L68.9232 34.2999L68.9364 34.37L68.949 34.4402L68.9608 34.5105L68.972 34.581L68.9823 34.6515L68.9921 34.7222L69.0011 34.7929L69.0094 34.8638L69.017 34.9347L69.0239 35.0057L69.03 35.0767L69.0355 35.1478L69.0402 35.219L69.0442 35.2902L69.0476 35.3614L69.0502 35.4327L69.0521 35.5039L69.0532 35.5753L69.0537 35.6466L69.0535 35.7179L69.0525 35.7892L69.0508 35.8605L69.0485 35.9317L69.0454 36.003L69.0416 36.0742L69.0371 36.1454L69.0318 36.2165L69.0259 36.2876L69.0192 36.3586L69.0119 36.4295L69.0038 36.5004L68.995 36.5712L68.9855 36.6418L68.9753 36.7124L68.9644 36.7829L68.9529 36.8533L68.9405 36.9235L68.9275 36.9936L68.9138 37.0636L68.8994 37.1335L68.8843 37.2032L68.8685 37.2727L68.852 37.3421L68.8348 37.4113L68.817 37.4803L68.7984 37.5492L68.7791 37.6179L68.7592 37.6863L68.7386 37.7546L68.7172 37.8226L68.6952 37.8905L68.6726 37.9581L68.6493 38.0255L68.6252 38.0927L68.6006 38.1595L68.5752 38.2262L68.5492 38.2926L68.5225 38.3588L68.4952 38.4246L68.4672 38.4902L68.4385 38.5555L68.4092 38.6205L68.3793 38.6853L68.3487 38.7497L68.3174 38.8138L68.2856 38.8776L68.2531 38.941L68.2199 39.0042L68.1861 39.067L68.1517 39.1295L68.1167 39.1916L68.0811 39.2534L68.0448 39.3147L68.0079 39.3758L67.9704 39.4365L67.9323 39.4968L67.8937 39.5567L67.8544 39.6162L67.8145 39.6753L67.774 39.7341L67.733 39.7924L67.6913 39.8502L67.6492 39.9077L67.6064 39.9648L67.563 40.0214L67.5191 40.0776L67.4746 40.1334L67.4296 40.1887L67.384 40.2435L67.3379 40.2979L67.2912 40.3518L67.244 40.4053L67.1963 40.4582L67.148 40.5107L67.0992 40.5628L67.0499 40.6143L67.0001 40.6653L66.9497 40.7159L66.8989 40.7659L66.8476 40.8154L66.7958 40.8643L66.7435 40.9128L66.6907 40.9608L66.6374 41.0082L66.5837 41.0551L66.5295 41.1014L66.4748 41.1472L66.4197 41.1925L66.3641 41.2372L66.3081 41.2814L66.2516 41.3249L66.1947 41.3679L66.1374 41.4104L66.0797 41.4522L66.0216 41.4935L65.963 41.5342L65.904 41.5743L65.8447 41.6138L65.7849 41.6528L65.7248 41.6911L65.6642 41.7288L65.6033 41.766L65.5421 41.8025L65.4805 41.8383L65.4185 41.8736L65.3562 41.9083L65.2935 41.9423L65.2305 41.9757L65.1671 42.0085L65.1035 42.0406L65.0395 42.0721L64.9752 42.103L64.9106 42.1331L64.8457 42.1627L64.7805 42.1916L64.715 42.2198L64.6492 42.2474L64.5833 42.2744L64.5169 42.3007L64.4504 42.3263L64.3836 42.3513L64.3165 42.3753L64.2492 42.3989L64.1817 42.422L64.1139 42.4442L64.046 42.4659L63.9778 42.4867L63.9094 42.5069L63.8408 42.5267L63.772 42.5456L63.7031 42.5635L63.6339 42.581L63.5646 42.598L63.4951 42.614L63.4255 42.6291L63.3557 42.6437L63.2858 42.6579L63.2157 42.6711L63.1455 42.6838L63.0752 42.6956L63.0047 42.7069L62.9342 42.7173L62.8636 42.7272L62.7928 42.7362L62.722 42.7447L62.6511 42.7522L62.5801 42.7588L62.5091 42.7654L62.438 42.7706L62.3668 42.7758L62.2956 42.7796L62.2244 42.7829L62.1531 42.7857L62.0819 42.7876L62.0105 42.789L61.9392 42.7895H61.8679L61.7966 42.7886L61.7253 42.7867L61.654 42.7843L61.5828 42.7815L61.5115 42.7777L61.4404 42.773L61.3693 42.7678L61.2982 42.7621L61.2272 42.7555L61.1562 42.7485L61.0854 42.7404L61.0146 42.7315L60.9439 42.722L60.8733 42.7121L60.8028 42.7013L60.7324 42.6895L60.6622 42.6772L60.5921 42.6645L60.5221 42.6508L60.4522 42.6362L60.3825 42.6211L60.3129 42.6055L60.2435 42.589L60.1743 42.572L60.1053 42.5541L60.0364 42.5357L59.9677 42.5164L59.8992 42.4966L59.8309 42.4758L59.7629 42.4546L59.695 42.4329L59.6274 42.4102L59.56 42.3871L59.4928 42.3629L59.4259 42.3383L59.3592 42.313L59.2928 42.2871L59.2266 42.2604L59.1607 42.2331L59.0951 42.2052L59.0298 42.1766L58.9648 42.1473L58.9 42.1174L58.8356 42.0869L58.7714 42.0557L58.7076 42.0239L58.6441 41.9914L58.5809 41.9583L58.5181 41.9246L58.4556 41.8903L58.3935 41.8552L58.3317 41.8197L58.2702 41.7835L58.2092 41.7466L58.1484 41.7092L58.0881 41.6711L58.0282 41.6325L57.9686 41.5933L57.9095 41.5534L57.8507 41.513L57.7924 41.472L57.7345 41.4304L57.6769 41.3882L57.6198 41.3455L57.5632 41.3022L57.5069 41.2583L57.4512 41.2139L57.3959 41.1689L57.341 41.1234L57.2865 41.0773L57.2326 41.0307L57.1791 40.9835L57.1261 40.9358L57.0735 40.8876L57.0215 40.8388L56.9699 40.7896L56.9189 40.7398L56.8683 40.6895L56.8182 40.6387L56.7687 40.5874L56.7196 40.5357L56.6711 40.4834L56.6231 40.4306L56.5756 40.3774L56.5287 40.3237L56.4823 40.2696L56.4365 40.2149L56.3912 40.1598L56.3465 40.1043L56.3023 40.0483L56.2586 39.9919L56.2156 39.9351L56.1731 39.8778L56.1312 39.8201L56.0898 39.7619L56.0491 39.7034L56.0089 39.6445L55.9694 39.5852L55.9304 39.5255L55.8921 39.4653L55.8543 39.4048L55.8171 39.344L55.7805 39.2828L55.7446 39.2212L55.7093 39.1592L55.6746 39.0969L55.6405 39.0343L55.607 38.9713L55.5743 38.9079L55.542 38.8443L55.5105 38.7803L55.4796 38.7161L55.4493 38.6515L55.4197 38.5866L55.3908 38.5215L55.3625 38.456L55.3348 38.3903L55.3078 38.3243L55.2815 38.258L55.2558 38.1914L55.2308 38.1246L55.2065 38.0576L55.1828 37.9903L55.1598 37.9228L55.1375 37.8551L55.1159 37.7871L55.0949 37.719L55.0747 37.6506L55.0551 37.582L55.0362 37.5132L55.018 37.4443L55.0005 37.3752L54.9837 37.3059L54.9675 37.2364L54.9521 37.1668L54.9373 37.097L54.9233 37.0271L54.91 36.957L54.8973 36.8868L54.8854 36.8166L54.8741 36.7461L54.8636 36.6756L54.8538 36.6049L54.8447 36.5342L54.8362 36.4634L54.8286 36.3925L54.8216 36.3215L54.8153 36.2505L54.8097 36.1794L54.8049 36.1083L54.8007 36.037L54.7973 35.9658L54.7945 35.8946L54.7926 35.8232L54.7912 35.752L54.7907 35.6806L54.7906 35.6579ZM26.2595 35.6892V35.7604V35.7832L26.26 35.8545L26.2614 35.9258L26.2633 35.9971L26.2661 36.0683L26.2694 36.1396L26.2737 36.2108L26.2784 36.2819L26.284 36.353L26.2902 36.4241L26.2973 36.495L26.3048 36.5659L26.3133 36.6368L26.3227 36.7075L26.3322 36.7781L26.343 36.8487L26.3543 36.9191L26.3661 36.9894L26.3789 37.0596L26.3921 37.1296L26.4062 37.1995L26.4208 37.2693L26.4364 37.3389L26.4525 37.4084L26.4694 37.4777L26.4869 37.5469L26.5048 37.6158L26.5237 37.6846L26.5435 37.7531L26.5638 37.8215L26.5845 37.8897L26.6062 37.9576L26.6284 38.0254L26.6515 38.0929L26.6751 38.1601L26.6996 38.2272L26.7246 38.294L26.7501 38.3605L26.7765 38.4268L26.8034 38.4928L26.8312 38.5585L26.8596 38.624L26.8883 38.6892L26.918 38.754L26.9482 38.8186L26.9794 38.8829L27.011 38.9468L27.043 39.0105L27.0756 39.0738L27.1091 39.1368L27.1435 39.1994L27.178 39.2618L27.2133 39.3237L27.2492 39.3853L27.286 39.4465L27.3228 39.5074L27.361 39.5679L27.3992 39.628L27.4379 39.6877L27.4775 39.747L27.5181 39.806L27.5586 39.8645L27.6002 39.9226L27.6417 39.9803L27.6841 40.0376L27.7275 40.0944L27.7709 40.1509L27.8153 40.2069L27.8601 40.2624L27.9054 40.3175L27.9511 40.3721L27.9973 40.4262L28.0445 40.4799L28.0917 40.5332L28.1398 40.5859L28.1884 40.6382L28.2375 40.69L28.287 40.7413L28.337 40.7921L28.3875 40.8424L28.4384 40.8921L28.4903 40.9414L28.5422 40.9901L28.595 41.0384L28.6479 41.086L28.7012 41.1332L28.7554 41.1799L28.8097 41.2259L28.8644 41.2715L28.92 41.3164L28.9757 41.3609L29.0318 41.4047L29.0884 41.448L29.1455 41.4908L29.2031 41.533L29.2611 41.5746L29.3196 41.6156L29.3781 41.656L29.4375 41.6958L29.4969 41.735L29.5569 41.7737L29.6172 41.8117L29.6781 41.8492L29.7389 41.886L29.8003 41.9222L29.8621 41.9578L29.9243 41.9928L29.9866 42.0271L30.0498 42.0609L30.113 42.094L30.1762 42.1264L30.2404 42.1583L30.3041 42.1895L30.3687 42.22L30.4333 42.2499L30.4984 42.2791L30.564 42.3077L30.6296 42.3357L30.6951 42.363L30.7616 42.3896L30.8281 42.4155L30.8947 42.4408L30.9616 42.4655L31.0286 42.4897L31.0961 42.5128L31.1635 42.5354L31.2315 42.5571L31.2999 42.5783L31.3678 42.5991L31.4367 42.6189L31.5051 42.6382L31.5739 42.6566L31.6433 42.6746L31.7122 42.6916L31.7815 42.7081L31.8513 42.7236L31.9211 42.7387L31.9909 42.7533L32.0608 42.767L32.131 42.7798L32.2013 42.792L32.2716 42.8038L32.3419 42.8147L32.4127 42.8246L32.4834 42.834L32.5542 42.843L32.6249 42.851L32.6957 42.8581L32.7669 42.8647L32.8382 42.8703L32.9089 42.8755L32.9801 42.8802L33.0514 42.884L33.1226 42.8868L33.1938 42.8892L33.2655 42.8911L33.3368 42.892H33.408L33.4792 42.8916L33.5505 42.8901L33.6217 42.8883L33.6929 42.8854L33.7641 42.8821L33.8354 42.8784L33.9066 42.8732L33.9778 42.868L34.0491 42.8614L34.1198 42.8548L34.1906 42.8472L34.2613 42.8387L34.3321 42.8298L34.4029 42.8199L34.4736 42.8095L34.5439 42.7982L34.6142 42.7864L34.6845 42.7736L34.7543 42.7604L34.8246 42.7463L34.8944 42.7317L34.9637 42.7166L35.0335 42.7005L35.1024 42.6835L35.1718 42.6661L35.2406 42.6482L35.3095 42.6293L35.3779 42.6095L35.4463 42.5892L35.5147 42.5684L35.5826 42.5467L35.6506 42.5246L35.718 42.5014L35.7855 42.4779L35.8525 42.4538L35.919 42.4289L35.9855 42.4032L36.052 42.377L36.118 42.35L36.1836 42.3224L36.2492 42.2941L36.3143 42.2653L36.3794 42.2357L36.444 42.2055L36.5082 42.1746L36.5723 42.1431L36.636 42.111L36.6992 42.0782L36.7624 42.0448L36.8247 42.0108L36.8874 41.9761L36.9492 41.9409L37.011 41.905L37.0719 41.8685L37.1332 41.8314L37.1936 41.7936L37.2535 41.7553L37.3134 41.7164L37.3728 41.6769L37.4318 41.6367L37.4903 41.596L37.5483 41.5547L37.6063 41.5129L37.6634 41.4705L37.7205 41.4274L37.7766 41.3839L37.8327 41.3397L37.8884 41.295L37.9436 41.2498L37.9983 41.204L38.0526 41.1577L38.1063 41.1108L38.1592 41.0634L38.212 41.0154L38.2644 40.9669L38.3163 40.9179L38.3677 40.8684L38.4186 40.8184L38.4686 40.7679L38.5186 40.7168L38.5682 40.6653L38.6167 40.6133L38.6649 40.5608L38.7125 40.5078L38.7602 40.4544L38.8064 40.4004L38.8526 40.3461L38.8984 40.2912L38.9432 40.2359L38.988 40.1801L39.0319 40.124L39.0753 40.0673L39.1177 40.0103L39.1602 39.9528L39.2017 39.8949L39.2427 39.8366L39.2833 39.7779L39.3229 39.7188L39.3625 39.6592L39.4012 39.5993L39.439 39.539L39.4767 39.4783L39.5135 39.4173L39.5498 39.3559L39.5857 39.2941L39.6206 39.232L39.655 39.1695L39.6885 39.1067L39.7218 39.0436L39.7543 38.9801L39.7862 38.9163L39.8174 38.8522L39.848 38.7878L39.8779 38.723L39.9073 38.658L39.9359 38.5928L39.9639 38.5271L39.9913 38.4613L40.0179 38.3952L40.0439 38.3287L40.0693 38.2621L40.094 38.1952L40.118 38.128L40.1413 38.0607L40.164 37.993L40.186 37.9252L40.2073 37.8571L40.2279 37.7889L40.2479 37.7204L40.2671 37.6517L40.2857 37.5829L40.3035 37.5138L40.3207 37.4446L40.3372 37.3752L40.353 37.3057L40.3682 37.236L40.3825 37.1661L40.3963 37.0962L40.4092 37.026L40.4216 36.9558L40.4332 36.8855L40.4441 36.815L40.4543 36.7444L40.4637 36.6737L40.4725 36.6029L40.4806 36.532L40.4879 36.4611L40.4946 36.3901L40.5005 36.3191L40.5058 36.2479L40.5103 36.1768L40.5141 36.1056L40.5172 36.0343L40.5196 35.9631L40.5212 35.8917L40.5222 35.8204L40.5225 35.7491L40.522 35.6778L40.5208 35.6065L40.5189 35.5352L40.5163 35.4639L40.513 35.3927L40.5089 35.3215L40.5042 35.2503L40.4987 35.1792L40.4925 35.1082L40.4857 35.0372L40.4781 34.9663L40.4698 34.8955L40.4608 34.8247L40.4511 34.7541L40.4407 34.6835L40.4295 34.6131L40.4177 34.5427L40.4052 34.4725L40.392 34.4025L40.378 34.3325L40.3634 34.2627L40.3481 34.1931L40.3321 34.1236L40.3153 34.0542L40.2979 33.9851L40.2799 33.9161L40.261 33.8473L40.2415 33.7787L40.2214 33.7103L40.2006 33.6421L40.179 33.5741L40.1568 33.5063L40.1339 33.4388L40.1104 33.3715L40.0862 33.3044L40.0613 33.2376L40.0357 33.171L40.0095 33.1047L39.9826 33.0387L39.9551 32.9729L39.9269 32.9073L39.898 32.8421L39.8685 32.7772L39.8383 32.7126L39.8075 32.6483L39.7761 32.5842L39.744 32.5206L39.7113 32.4572L39.6781 32.3941L39.6442 32.3315L39.6092 32.2691L39.5743 32.2071L39.5385 32.1455L39.5017 32.0841L39.4649 32.0232L39.4272 31.9627L39.389 31.9025L39.3498 31.8427L39.3106 31.7833L39.2706 31.7243L39.2295 31.6657L39.1885 31.6075L39.1465 31.5498L39.1045 31.4924L39.0611 31.4355L39.0177 31.379L38.9738 31.323L38.929 31.2674L38.8837 31.2122L38.838 31.1575L38.7918 31.1033L38.7451 31.0495L38.6974 30.9962L38.6498 30.9434L38.6012 30.891L38.5521 30.8392L38.5026 30.7878L38.4531 30.7369L38.4021 30.6866L38.3512 30.6367L38.2998 30.5874L38.2479 30.5385L38.1955 30.4902L38.1427 30.4424L38.0889 30.3952L38.0351 30.3485L37.9809 30.3023L37.9261 30.2567L37.871 30.2116L37.8148 30.1671L37.7587 30.1231L37.7021 30.0797L37.6455 30.0369L37.5879 29.9946L37.5299 29.9529L37.4719 29.9118L37.4129 29.8713L37.354 29.8314L37.2945 29.7921L37.2346 29.7534L37.1742 29.7152L37.1138 29.6777L37.0525 29.6408L36.9912 29.6044L36.9294 29.5688L36.8676 29.5337L36.8049 29.4992L36.7421 29.4654L36.6789 29.4322L36.6157 29.3997L36.552 29.3677L36.4879 29.3364L36.4232 29.3058L36.3586 29.2758L36.2935 29.2464L36.2284 29.2177L36.1628 29.1897L36.0968 29.1623L36.0308 29.1355L35.9643 29.1095L35.8977 29.0841L35.8308 29.0594L35.7638 29.0353L35.6963 29.0119L35.6289 28.9892L35.5609 28.9671L35.493 28.9458L35.4246 28.9251L35.3562 28.9051L35.2878 28.8858L35.2189 28.8672L35.1496 28.8492L35.0807 28.832L35.0114 28.8154L34.9416 28.7996L34.8722 28.7844L34.8019 28.77L34.7321 28.7562L34.6623 28.7431L34.592 28.7308L34.5213 28.7191L34.451 28.7082L34.3802 28.6979L34.3099 28.6883L34.2392 28.6795L34.1679 28.6714L34.0972 28.664L34.0264 28.6573L33.9552 28.6513L33.884 28.646L33.8127 28.6414L33.7415 28.6375L33.6703 28.6344L33.599 28.632L33.5278 28.6302L33.4566 28.6292L33.3854 28.6289L33.3141 28.6293L33.2424 28.6305L33.1712 28.6323L33.1 28.6348L33.0287 28.6381L32.9575 28.6421L32.8863 28.6468L32.8155 28.6522L32.7443 28.6583L32.6735 28.6651L32.6023 28.6726L32.5315 28.6809L32.4608 28.6899L32.39 28.6995L32.3197 28.7099L32.249 28.7209L32.1787 28.7327L32.1084 28.7451L32.0386 28.7583L31.9683 28.7722L31.8985 28.7868L31.8291 28.8021L31.7593 28.818L31.69 28.8347L31.6211 28.852L31.5522 28.8701L31.4834 28.8888L31.4145 28.9082L31.3461 28.9284L31.2782 28.9491L31.2098 28.9706L31.1423 28.9927L31.0744 29.0156L31.0074 29.0391L30.9404 29.0632L30.8734 29.0881L30.8069 29.1136L30.7404 29.1398L30.6744 29.1666L30.6083 29.1941L30.5432 29.2222L30.4777 29.2511L30.413 29.2805L30.3479 29.3106L30.2838 29.3413L30.2196 29.3728L30.1559 29.4048L30.0927 29.4374L30.0295 29.4707L29.9668 29.5047L29.9045 29.5392L29.8422 29.5744L29.7809 29.6102L29.7196 29.6466L29.6583 29.6836L29.5979 29.7212L29.5375 29.7595L29.4781 29.7983L29.4186 29.8377L29.3597 29.8777L29.3007 29.9184L29.2427 29.9595L29.1847 30.0013L29.1276 30.0437L29.0705 30.0866L29.0139 30.1301L28.9578 30.1741L28.9021 30.2188L28.8469 30.2639L28.7922 30.3096L28.7379 30.3559L28.6842 30.4027L28.6309 30.45L28.578 30.4979L28.5257 30.5463L28.4738 30.5952L28.4224 30.6446L28.3714 30.6945L28.3209 30.745L28.2709 30.7959L28.2219 30.8474L28.1728 30.8994L28.1247 30.9518L28.0766 31.0046L28.0294 31.058L27.9827 31.1119L27.9365 31.1662L27.8907 31.221L27.8454 31.2762L27.8011 31.3319L27.7572 31.388L27.7134 31.4446L27.6709 31.5016L27.6285 31.559L27.5865 31.6168L27.5454 31.6751L27.5049 31.7337L27.4652 31.7927L27.4256 31.8522L27.3869 31.912L27.3487 31.9723L27.311 32.0329L27.2742 32.0939L27.2379 32.1552L27.202 32.217L27.1671 32.279L27.1322 32.3414L27.0987 32.4042L27.0652 32.4673L27.0327 32.5307L27.0006 32.5944L26.9695 32.6585L26.9388 32.7228L26.9086 32.7875L26.8794 32.8525L26.8506 32.9178L26.8223 32.9833L26.7949 33.0491L26.768 33.1152L26.7421 33.1816L26.7166 33.2482L26.6916 33.3151L26.6676 33.3822L26.644 33.4495L26.6213 33.5171L26.5992 33.5849L26.5779 33.6529L26.5572 33.7212L26.5369 33.7896L26.5176 33.8583L26.4992 33.9271L26.4812 33.9961L26.4638 34.0653L26.4473 34.1347L26.4312 34.2041L26.4161 34.2738L26.4015 34.3436L26.3878 34.4136L26.3746 34.4837L26.3624 34.5539L26.3506 34.6243L26.3392 34.6947L26.3293 34.7653L26.3194 34.836L26.3105 34.9067L26.3024 34.9776L26.2949 35.0485L26.2883 35.1195L26.2822 35.1906L26.277 35.2616L26.2723 35.3328L26.2685 35.4041L26.2652 35.4753L26.2624 35.5466L26.2609 35.6178L26.2595 35.6892Z" fill="#FEFEFE"/>
</svg>
