<svg width="256" height="256" viewBox="0 0 256 256" fill="none" xmlns="http://www.w3.org/2000/svg">
<g clip-path="url(#clip0_30_90)">
<path fill-rule="evenodd" clip-rule="evenodd" d="M0 32L64.0625 0H0V32ZM0 64V96L192.188 0H128.125L0 64ZM256 0.124878L0 128V160L256 32.1249V0.124878ZM256 64.1249L0 192V224L64 192.031V192H64.0625L256 96.1249V64.1249ZM256 128.125L128.125 192H192V192.094L256 160.125V128.125ZM256 192.125L128.125 256H192.188L256 224.125V192.125ZM64.0625 256L128.125 224H64.0625L0 256H64.0625ZM80 201.5L86.9282 213.5H73.0718L80 201.5ZM109.648 206.93V208.828C109.648 209.63 109.549 210.333 109.352 210.938C109.159 211.536 108.883 212.039 108.523 212.445C108.169 212.846 107.74 213.148 107.234 213.352C106.734 213.555 106.18 213.656 105.57 213.656C104.961 213.656 104.404 213.555 103.898 213.352C103.398 213.148 102.966 212.846 102.602 212.445C102.242 212.039 101.964 211.536 101.766 210.938C101.568 210.333 101.469 209.63 101.469 208.828V206.93C101.469 206.107 101.565 205.388 101.758 204.773C101.95 204.154 102.229 203.638 102.594 203.227C102.958 202.81 103.391 202.497 103.891 202.289C104.391 202.076 104.945 201.969 105.555 201.969C106.164 201.969 106.719 202.076 107.219 202.289C107.719 202.497 108.151 202.81 108.516 203.227C108.88 203.638 109.159 204.154 109.352 204.773C109.549 205.388 109.648 206.107 109.648 206.93ZM107.375 208.828V206.914C107.375 206.372 107.336 205.911 107.258 205.531C107.18 205.146 107.062 204.831 106.906 204.586C106.75 204.341 106.56 204.161 106.336 204.047C106.112 203.932 105.852 203.875 105.555 203.875C105.258 203.875 104.995 203.932 104.766 204.047C104.542 204.161 104.352 204.341 104.195 204.586C104.044 204.831 103.93 205.146 103.852 205.531C103.779 205.911 103.742 206.372 103.742 206.914V208.828C103.742 209.349 103.781 209.794 103.859 210.164C103.937 210.534 104.055 210.836 104.211 211.07C104.367 211.305 104.557 211.479 104.781 211.594C105.01 211.703 105.273 211.758 105.57 211.758C105.862 211.758 106.12 211.703 106.344 211.594C106.573 211.479 106.763 211.305 106.914 211.07C107.065 210.836 107.18 210.534 107.258 210.164C107.336 209.794 107.375 209.349 107.375 208.828ZM96.1562 206.883H94.9609V204.023H96.1797C96.4974 204.023 96.7552 204.073 96.9531 204.172C97.151 204.271 97.2942 204.427 97.3828 204.641C97.4713 204.849 97.5156 205.128 97.5156 205.477C97.5156 205.779 97.4661 206.036 97.3672 206.25C97.2734 206.458 97.125 206.617 96.9218 206.727C96.7239 206.831 96.4687 206.883 96.1562 206.883ZM94.9609 208.539H96.5078H96.5156C96.8073 208.539 97.039 208.604 97.2109 208.734C97.3828 208.859 97.5052 209.042 97.5781 209.281C97.6562 209.521 97.6953 209.802 97.6953 210.125C97.6953 210.411 97.6536 210.667 97.5703 210.891C97.487 211.109 97.3515 211.284 97.164 211.414C96.9765 211.544 96.7317 211.609 96.4297 211.609H94.9609V208.539ZM92.6718 213.5H93.5312H94.9609H96.4297C97.1953 213.5 97.8411 213.375 98.3672 213.125C98.8932 212.87 99.2916 212.495 99.5625 212C99.8385 211.5 99.9765 210.885 99.9765 210.156C99.9765 209.703 99.8958 209.276 99.7343 208.875C99.5781 208.469 99.3177 208.141 98.9531 207.891C98.7917 207.778 98.6064 207.692 98.397 207.633C98.4828 207.593 98.564 207.548 98.6406 207.5C99.0416 207.25 99.3359 206.927 99.5234 206.531C99.7109 206.135 99.8047 205.703 99.8047 205.234C99.8047 204.703 99.7213 204.242 99.5547 203.852C99.3932 203.461 99.1562 203.138 98.8437 202.883C98.5312 202.628 98.151 202.438 97.7031 202.312C97.2552 202.188 96.7474 202.125 96.1797 202.125H92.6718V213.5ZM115.187 213.5V204.023H118.016V202.125H115.187H112.914H110.141V204.023H112.914V213.5H115.187ZM124.031 210.508C124.031 210.305 124.013 210.12 123.977 209.953C123.94 209.786 123.862 209.633 123.742 209.492C123.628 209.352 123.458 209.211 123.234 209.07C123.016 208.93 122.729 208.784 122.375 208.633C121.953 208.456 121.544 208.268 121.148 208.07C120.753 207.867 120.396 207.633 120.078 207.367C119.76 207.102 119.508 206.789 119.32 206.43C119.138 206.065 119.047 205.638 119.047 205.148C119.047 204.669 119.133 204.234 119.305 203.844C119.482 203.453 119.732 203.12 120.055 202.844C120.378 202.562 120.755 202.346 121.187 202.195C121.625 202.044 122.112 201.969 122.648 201.969C123.378 201.969 124.008 202.12 124.539 202.422C125.075 202.724 125.49 203.138 125.781 203.664C126.078 204.19 126.227 204.794 126.227 205.477H123.945C123.945 205.154 123.898 204.87 123.805 204.625C123.716 204.375 123.573 204.18 123.375 204.039C123.177 203.898 122.922 203.828 122.609 203.828C122.318 203.828 122.075 203.888 121.883 204.008C121.695 204.122 121.555 204.281 121.461 204.484C121.372 204.682 121.328 204.906 121.328 205.156C121.328 205.344 121.372 205.513 121.461 205.664C121.555 205.81 121.682 205.943 121.844 206.062C122.005 206.177 122.195 206.289 122.414 206.398C122.638 206.508 122.883 206.615 123.148 206.719C123.664 206.922 124.12 207.146 124.516 207.391C124.911 207.63 125.242 207.901 125.508 208.203C125.773 208.5 125.974 208.836 126.109 209.211C126.245 209.586 126.312 210.013 126.312 210.492C126.312 210.966 126.229 211.398 126.062 211.789C125.901 212.174 125.664 212.508 125.352 212.789C125.039 213.065 124.661 213.279 124.219 213.43C123.781 213.581 123.292 213.656 122.75 213.656C122.224 213.656 121.727 213.583 121.258 213.438C120.789 213.286 120.375 213.06 120.016 212.758C119.661 212.451 119.383 212.062 119.18 211.594C118.977 211.12 118.875 210.56 118.875 209.914H121.164C121.164 210.258 121.198 210.552 121.266 210.797C121.333 211.036 121.437 211.229 121.578 211.375C121.719 211.516 121.891 211.622 122.094 211.695C122.302 211.763 122.539 211.797 122.805 211.797C123.107 211.797 123.346 211.74 123.523 211.625C123.706 211.51 123.836 211.357 123.914 211.164C123.992 210.971 124.031 210.753 124.031 210.508ZM139.539 208.828V206.93C139.539 206.107 139.44 205.388 139.242 204.773C139.049 204.154 138.771 203.638 138.406 203.227C138.042 202.81 137.609 202.497 137.109 202.289C136.609 202.076 136.055 201.969 135.445 201.969C134.836 201.969 134.281 202.076 133.781 202.289C133.281 202.497 132.849 202.81 132.484 203.227C132.12 203.638 131.841 204.154 131.648 204.773C131.456 205.388 131.359 206.107 131.359 206.93V208.828C131.359 209.63 131.458 210.333 131.656 210.938C131.854 211.536 132.133 212.039 132.492 212.445C132.857 212.846 133.289 213.148 133.789 213.352C134.294 213.555 134.852 213.656 135.461 213.656C136.07 213.656 136.625 213.555 137.125 213.352C137.63 213.148 138.06 212.846 138.414 212.445C138.773 212.039 139.049 211.536 139.242 210.938C139.44 210.333 139.539 209.63 139.539 208.828ZM137.266 206.914V208.828C137.266 209.349 137.227 209.794 137.148 210.164C137.07 210.534 136.956 210.836 136.805 211.07C136.654 211.305 136.464 211.479 136.234 211.594C136.01 211.703 135.753 211.758 135.461 211.758C135.164 211.758 134.901 211.703 134.672 211.594C134.448 211.479 134.258 211.305 134.102 211.07C133.945 210.836 133.828 210.534 133.75 210.164C133.672 209.794 133.633 209.349 133.633 208.828V206.914C133.633 206.372 133.669 205.911 133.742 205.531C133.82 205.146 133.935 204.831 134.086 204.586C134.242 204.341 134.432 204.161 134.656 204.047C134.885 203.932 135.148 203.875 135.445 203.875C135.742 203.875 136.003 203.932 136.227 204.047C136.45 204.161 136.641 204.341 136.797 204.586C136.953 204.831 137.07 205.146 137.148 205.531C137.227 205.911 137.266 206.372 137.266 206.914ZM149.156 202.125V213.5H146.945L143.375 206.383V213.5H141.203V202.125H143.383L146.984 209.32V202.125H149.156ZM157.312 213.5V211.609H153.289V202.125H151V213.5H152.586H153.289H157.312ZM158.172 202.125L159.906 207.25L161.625 202.125H164.117L161.055 209.367V213.5H158.75V209.367L155.687 202.125H158.172ZM182.928 213.5L176 201.5L169.072 213.5H182.928Z" fill="white"/>
</g>
<defs>
<clipPath id="clip0_30_90">
<rect width="256" height="256" fill="white"/>
</clipPath>
</defs>
</svg>
